<svg id="svg" version="1.1" width="400" height="200" viewBox="0 0 400 200" xmlns="http://www.w3.org/2000/svg" xmlns:xlink="http://www.w3.org/1999/xlink"><g id="svgg"><path id="path0" d="M199.850 99.024 L 199.900 151.900 207.700 151.840 C 228.277 151.682,246.467 150.343,265.200 147.606 C 270.729 146.798,272.323 146.534,278.400 145.425 C 286.951 143.864,298.881 141.187,305.200 139.410 C 306.355 139.085,307.885 138.675,308.600 138.500 C 309.315 138.324,310.440 138.013,311.100 137.808 C 311.760 137.602,313.290 137.148,314.500 136.798 C 318.268 135.708,329.264 132.042,334.600 130.097 C 356.880 121.972,374.339 112.819,385.300 103.517 C 387.251 101.861,392.000 97.154,392.000 96.876 C 392.000 96.362,384.653 90.084,381.000 87.476 C 374.187 82.611,364.163 77.217,352.924 72.367 C 349.249 70.780,340.066 67.160,338.400 66.640 C 337.685 66.417,335.390 65.656,333.300 64.948 C 325.539 62.320,319.279 60.510,310.400 58.327 C 306.605 57.394,303.230 56.581,302.900 56.521 C 300.923 56.162,290.484 54.139,289.400 53.905 C 288.080 53.620,277.756 51.869,274.100 51.311 C 273.000 51.143,270.660 50.781,268.900 50.506 C 259.670 49.066,241.652 47.408,226.300 46.587 C 224.100 46.469,217.237 46.322,211.050 46.261 L 199.799 46.148 199.850 99.024 M116.700 64.140 C 95.376 66.082,81.675 88.843,89.534 109.268 C 99.844 136.059,139.354 136.664,150.996 110.210 C 161.452 86.449,143.058 61.740,116.700 64.140 M297.256 81.050 C 304.255 95.077,306.169 98.958,310.252 107.400 C 310.970 108.885,312.477 111.990,313.600 114.300 C 314.724 116.610,316.397 120.075,317.317 122.000 C 318.238 123.925,319.261 126.040,319.591 126.700 C 319.921 127.360,320.193 127.968,320.196 128.050 C 320.198 128.133,314.629 128.200,307.820 128.200 L 295.439 128.200 293.791 124.850 C 291.974 121.156,285.781 108.406,284.064 104.823 C 283.464 103.571,282.902 102.626,282.814 102.723 C 282.727 102.821,279.790 108.593,276.287 115.550 L 269.919 128.200 257.560 128.200 C 250.762 128.200,245.200 128.157,245.200 128.105 C 245.200 128.053,249.706 118.985,255.214 107.955 C 260.721 96.925,266.954 84.436,269.064 80.203 C 271.174 75.970,273.693 70.952,274.663 69.053 L 276.427 65.600 282.986 65.600 L 289.546 65.600 297.256 81.050 M124.974 69.708 C 145.047 72.617,154.862 95.249,143.489 112.400 C 136.411 123.073,122.233 127.336,110.000 122.469 C 99.105 118.135,92.052 107.290,92.680 95.834 C 93.586 79.273,108.382 67.303,124.974 69.708 M280.359 70.142 C 279.398 70.247,280.493 68.218,268.447 92.200 C 262.728 103.585,256.823 115.307,255.325 118.249 C 253.826 121.191,252.600 123.644,252.600 123.699 C 252.600 123.755,253.613 123.799,254.850 123.799 L 257.100 123.797 257.451 123.180 C 257.644 122.841,260.514 117.194,263.829 110.632 C 284.859 68.991,282.705 73.024,283.397 73.996 C 283.821 74.592,295.598 98.060,298.982 105.052 C 299.846 106.838,302.229 111.705,304.277 115.867 C 306.325 120.028,308.000 123.516,308.000 123.617 C 308.000 123.718,309.079 123.800,310.400 123.800 C 311.720 123.800,312.800 123.755,312.800 123.700 C 312.800 123.646,310.970 119.888,308.734 115.350 C 306.498 110.813,302.937 103.545,300.820 99.200 C 298.704 94.855,294.571 86.530,291.636 80.700 L 286.300 70.100 283.700 70.081 C 282.270 70.070,280.767 70.098,280.359 70.142 M116.800 74.690 C 99.619 77.509,91.729 97.945,102.719 111.163 C 115.094 126.047,139.619 119.724,142.914 100.800 C 145.616 85.281,132.455 72.122,116.800 74.690 M235.300 77.375 C 240.917 78.811,244.771 81.780,247.154 86.508 C 248.083 88.350,248.079 88.369,246.700 88.893 C 246.040 89.143,244.645 89.681,243.600 90.088 C 236.615 92.806,237.234 92.702,236.609 91.260 C 234.982 87.504,230.373 85.587,225.646 86.702 C 215.498 89.094,215.392 105.859,225.508 108.494 C 230.459 109.783,235.379 107.516,236.886 103.251 C 237.087 102.680,237.250 102.511,237.563 102.545 C 237.922 102.585,247.795 106.339,247.963 106.500 C 247.998 106.533,247.791 107.026,247.502 107.595 C 244.159 114.192,238.944 117.521,230.884 118.201 C 215.937 119.464,205.424 110.390,205.858 96.600 C 206.196 85.895,213.261 78.441,224.700 76.723 C 226.864 76.399,232.944 76.772,235.300 77.375 M338.133 77.200 L 355.007 77.200 354.953 82.250 L 354.900 87.300 348.400 87.300 L 341.900 87.300 341.849 102.350 L 341.797 117.400 335.800 117.400 L 329.803 117.400 329.751 102.350 L 329.700 87.300 323.200 87.300 L 316.700 87.300 316.647 82.260 L 316.593 77.220 317.747 77.137 C 318.381 77.091,319.431 77.086,320.079 77.126 C 320.728 77.167,328.852 77.200,338.133 77.200 M43.400 97.272 L 43.400 117.345 46.750 117.450 C 48.593 117.508,51.495 117.543,53.200 117.528 L 56.300 117.500 56.400 109.200 L 56.500 100.900 63.648 100.847 L 70.796 100.795 70.848 109.134 L 70.900 117.474 75.500 117.543 C 78.030 117.580,80.933 117.555,81.950 117.487 L 83.800 117.363 83.800 97.281 L 83.800 77.200 77.303 77.200 L 70.805 77.200 70.753 84.133 L 70.700 91.066 63.600 91.028 L 56.500 90.989 56.447 84.095 L 56.395 77.200 49.897 77.200 L 43.400 77.200 43.400 97.272 M155.800 82.397 L 155.800 87.594 162.150 87.647 L 168.500 87.700 168.525 102.000 C 168.539 109.865,168.561 116.593,168.575 116.950 L 168.600 117.600 174.784 117.600 C 178.185 117.600,181.115 117.543,181.295 117.474 C 181.595 117.359,181.620 116.095,181.586 102.524 L 181.550 87.700 187.875 87.647 L 194.200 87.594 194.200 82.397 L 194.200 77.200 175.000 77.200 L 155.800 77.200 155.800 82.397 M124.205 80.113 C 136.156 82.380,141.737 96.238,134.881 106.621 C 125.588 120.691,103.052 113.725,103.111 96.800 C 103.141 88.114,109.132 81.328,118.000 79.933 C 119.286 79.731,122.714 79.830,124.205 80.113 M282.542 83.727 C 282.382 84.042,279.348 90.060,275.800 97.100 C 272.252 104.140,267.786 112.979,265.875 116.743 C 263.964 120.507,262.400 123.634,262.400 123.693 C 262.400 123.752,263.385 123.800,264.589 123.800 L 266.778 123.800 268.065 121.350 C 268.773 120.003,271.827 113.995,274.850 108.000 C 280.699 96.406,282.773 92.400,282.931 92.400 C 282.985 92.400,286.528 99.465,290.805 108.100 L 298.582 123.800 300.791 123.800 C 302.006 123.800,303.000 123.760,303.000 123.712 C 303.000 123.663,300.583 118.736,297.628 112.762 C 294.674 106.788,291.692 100.730,291.001 99.300 C 288.673 94.479,283.177 83.501,283.005 83.327 C 282.910 83.230,282.705 83.407,282.542 83.727 M118.000 85.085 C 107.213 87.362,104.431 101.067,113.548 107.019 C 121.830 112.425,132.570 106.793,132.651 97.000 C 132.716 89.250,125.618 83.478,118.000 85.085 M122.055 90.278 C 126.264 91.268,128.481 95.979,126.590 99.915 C 124.089 105.119,116.482 105.017,114.085 99.747 C 111.721 94.550,116.430 88.954,122.055 90.278 " stroke="none" fill="#050404" fill-rule="evenodd"></path><path id="path1" d="M190.200 46.333 C 180.083 46.692,168.218 47.398,160.400 48.105 C 143.152 49.664,130.273 51.400,112.300 54.588 C 107.009 55.526,97.261 57.562,90.600 59.121 C 82.900 60.922,74.348 63.426,65.400 66.497 C 62.705 67.423,59.555 68.538,58.400 68.976 C 57.245 69.414,55.355 70.128,54.200 70.563 C 49.954 72.163,42.299 75.478,37.598 77.753 C 27.333 82.721,18.116 88.947,11.061 95.676 L 9.302 97.353 10.401 98.407 C 14.756 102.585,21.167 107.359,26.900 110.694 C 28.000 111.334,29.395 112.148,30.000 112.502 C 36.414 116.264,49.382 122.393,57.000 125.265 C 58.045 125.658,60.340 126.534,62.100 127.211 C 85.402 136.172,114.624 143.677,140.300 147.296 C 143.050 147.683,146.605 148.184,148.200 148.409 C 160.168 150.093,176.472 151.258,196.750 151.877 L 199.800 151.970 199.800 99.085 L 199.800 46.200 195.750 46.240 C 193.523 46.262,191.025 46.303,190.200 46.333 M125.205 64.209 C 147.105 66.903,159.962 89.835,150.996 110.210 C 139.354 136.664,99.844 136.059,89.534 109.268 C 82.057 89.836,93.609 68.628,113.855 64.618 C 117.034 63.988,121.968 63.810,125.205 64.209 M224.700 76.723 C 213.261 78.441,206.196 85.895,205.858 96.600 C 205.424 110.390,215.937 119.464,230.884 118.201 C 238.944 117.521,244.159 114.192,247.502 107.595 C 247.791 107.026,247.998 106.533,247.963 106.500 C 247.795 106.339,237.922 102.585,237.563 102.545 C 237.250 102.511,237.087 102.680,236.886 103.251 C 235.379 107.516,230.459 109.783,225.508 108.494 C 215.392 105.859,215.498 89.094,225.646 86.702 C 230.373 85.587,234.982 87.504,236.609 91.260 C 237.234 92.702,236.615 92.806,243.600 90.088 C 244.645 89.681,246.040 89.143,246.700 88.893 C 248.079 88.369,248.083 88.350,247.154 86.508 C 243.891 80.036,238.023 76.847,229.100 76.697 C 227.010 76.662,225.030 76.674,224.700 76.723 M317.747 77.137 L 316.593 77.220 316.647 82.260 L 316.700 87.300 323.200 87.300 L 329.700 87.300 329.751 102.350 L 329.803 117.400 335.800 117.400 L 341.797 117.400 341.849 102.350 L 341.900 87.300 348.400 87.300 L 354.900 87.300 354.953 82.250 L 355.007 77.200 338.133 77.200 C 328.852 77.200,320.728 77.167,320.079 77.126 C 319.431 77.086,318.381 77.091,317.747 77.137 M56.447 84.095 L 56.500 90.989 63.600 91.028 L 70.700 91.066 70.753 84.133 L 70.805 77.200 77.303 77.200 L 83.800 77.200 83.800 97.281 L 83.800 117.363 81.950 117.487 C 80.933 117.555,78.030 117.580,75.500 117.543 L 70.900 117.474 70.848 109.134 L 70.796 100.795 63.648 100.847 L 56.500 100.900 56.400 109.200 L 56.300 117.500 53.200 117.528 C 51.495 117.543,48.593 117.508,46.750 117.450 L 43.400 117.345 43.400 97.272 L 43.400 77.200 49.897 77.200 L 56.395 77.200 56.447 84.095 M194.200 82.397 L 194.200 87.594 187.875 87.647 L 181.550 87.700 181.586 102.524 C 181.620 116.095,181.595 117.359,181.295 117.474 C 181.115 117.543,178.185 117.600,174.784 117.600 L 168.600 117.600 168.575 116.950 C 168.561 116.593,168.539 109.865,168.525 102.000 L 168.500 87.700 162.150 87.647 L 155.800 87.594 155.800 82.397 L 155.800 77.200 175.000 77.200 L 194.200 77.200 194.200 82.397 M119.039 90.213 C 114.701 91.067,112.267 95.751,114.085 99.747 C 116.482 105.017,124.089 105.119,126.590 99.915 C 129.052 94.791,124.632 89.112,119.039 90.213 " stroke="none" fill="#da040c" fill-rule="evenodd"></path><defs><clipPath id="hotcat-white-detail-clip"><ellipse cx="200" cy="100" rx="166" ry="40"/></clipPath></defs><path id="path2" d="M0.000 100.000 L 0.000 200.000 200.000 200.000 L 400.000 200.000 400.000 100.000 L 400.000 0.000 200.000 0.000 L 0.000 0.000 0.000 100.000 M221.100 46.196 C 231.870 46.603,236.917 46.943,251.000 48.214 C 254.685 48.546,258.690 48.949,259.900 49.110 C 261.110 49.270,262.955 49.499,264.000 49.619 C 265.875 49.833,271.170 50.630,278.407 51.785 C 282.989 52.517,290.492 53.870,292.900 54.399 C 293.890 54.617,295.915 55.017,297.400 55.288 C 303.380 56.381,309.102 57.704,317.500 59.935 C 322.817 61.348,329.936 63.553,336.900 65.943 C 352.643 71.348,367.624 78.432,378.714 85.715 C 384.885 89.768,392.800 96.574,392.196 97.307 C 388.870 101.345,378.153 109.617,370.900 113.744 C 370.130 114.182,368.825 114.932,368.000 115.410 C 365.856 116.652,355.306 121.948,352.700 123.091 C 349.360 124.556,340.567 128.143,338.200 129.007 C 337.045 129.428,334.705 130.285,333.000 130.910 C 331.295 131.535,329.090 132.297,328.100 132.603 C 327.110 132.909,325.940 133.295,325.500 133.460 C 306.386 140.662,271.554 147.873,244.200 150.292 C 229.820 151.564,224.326 151.818,208.600 151.942 C 193.160 152.063,174.091 151.471,168.800 150.707 C 168.415 150.651,166.255 150.466,164.000 150.295 C 159.068 149.922,153.705 149.350,149.100 148.707 C 147.230 148.445,145.205 148.176,144.600 148.108 C 142.610 147.883,131.753 146.184,129.100 145.682 C 127.670 145.411,125.735 145.054,124.800 144.888 C 122.087 144.407,112.159 142.392,111.500 142.189 C 111.170 142.088,109.550 141.696,107.900 141.318 C 106.250 140.941,102.740 140.078,100.100 139.400 C 97.460 138.723,94.793 138.044,94.172 137.892 C 86.640 136.044,70.093 130.517,57.200 125.543 C 45.767 121.133,32.323 114.447,23.412 108.741 C 18.851 105.821,11.734 100.239,9.600 97.909 L 9.100 97.363 11.004 95.531 C 16.253 90.484,22.382 86.000,30.700 81.124 C 32.871 79.852,40.550 76.048,43.500 74.785 C 48.725 72.546,50.237 71.922,53.700 70.575 C 60.213 68.041,60.338 67.996,68.200 65.348 C 71.390 64.274,74.535 63.301,80.200 61.637 C 86.102 59.903,97.500 57.249,106.200 55.583 C 111.648 54.540,116.565 53.624,117.200 53.533 C 117.585 53.478,119.480 53.159,121.411 52.825 C 130.762 51.208,146.513 49.156,156.100 48.305 C 171.791 46.914,175.360 46.690,190.800 46.134 C 195.029 45.981,216.577 46.026,221.100 46.196 M270.878 77.049 C 267.786 83.237,260.790 97.233,255.332 108.152 L 245.409 128.003 257.621 127.952 L 269.833 127.900 276.266 115.155 C 279.805 108.145,282.785 102.436,282.889 102.468 C 283.112 102.536,283.848 103.950,286.340 109.100 C 289.942 116.544,293.448 123.732,294.484 125.800 L 295.536 127.900 307.668 127.952 C 315.377 127.984,319.800 127.933,319.800 127.810 C 319.800 127.550,318.531 124.880,312.955 113.400 C 312.073 111.585,310.813 108.975,310.154 107.600 C 307.970 103.043,294.674 76.187,292.032 71.000 L 289.436 65.900 282.968 65.849 L 276.500 65.798 270.878 77.049 M116.638 69.901 C 96.338 72.999,86.310 95.270,97.546 112.300 C 104.285 122.514,118.317 126.937,130.200 122.594 C 152.426 114.470,154.361 83.198,133.299 72.495 C 128.581 70.097,122.033 69.078,116.638 69.901 M294.351 85.753 C 298.723 94.526,303.058 103.279,303.986 105.203 C 304.913 107.126,307.320 112.045,309.336 116.134 C 311.351 120.223,313.000 123.666,313.000 123.784 C 313.000 123.927,312.167 124.000,310.542 124.000 L 308.084 124.000 304.658 117.050 C 302.773 113.228,299.793 107.175,298.036 103.600 C 287.936 83.048,283.251 73.800,282.941 73.801 C 282.671 73.802,282.582 73.972,272.574 93.800 C 268.604 101.665,263.859 111.025,262.030 114.600 C 260.202 118.175,258.389 121.730,258.003 122.500 L 257.300 123.900 254.850 123.956 C 253.252 123.993,252.400 123.940,252.400 123.804 C 252.400 123.690,254.511 119.435,257.091 114.348 C 259.670 109.262,265.671 97.338,270.425 87.851 C 275.179 78.363,279.237 70.421,279.442 70.201 C 279.787 69.831,280.072 69.800,283.109 69.800 L 286.402 69.800 294.351 85.753 M123.940 74.404 C 139.250 76.324,148.039 93.226,140.993 107.200 C 134.605 119.870,117.609 123.596,106.250 114.817 C 87.776 100.539,100.503 71.466,123.940 74.404 M117.127 80.311 C 105.767 82.568,99.785 94.794,105.144 104.800 C 113.523 120.445,137.600 114.654,137.600 96.994 C 137.600 85.928,128.044 78.141,117.127 80.311 M285.796 88.350 C 287.267 91.293,289.678 96.175,291.155 99.200 C 292.632 102.225,295.946 108.949,298.520 114.143 C 301.094 119.337,303.200 123.682,303.200 123.799 C 303.200 123.942,302.416 123.994,300.850 123.956 L 298.500 123.900 296.557 120.100 C 294.880 116.821,293.074 113.163,289.153 105.100 C 286.184 98.995,282.942 92.779,282.804 92.927 C 282.533 93.216,280.786 96.613,275.152 107.800 C 272.189 113.685,269.120 119.737,268.332 121.250 L 266.900 124.000 264.528 124.000 L 262.157 124.000 262.280 123.510 C 262.347 123.241,263.103 121.688,263.960 120.060 C 264.816 118.432,267.438 113.275,269.786 108.600 C 279.301 89.653,282.710 83.004,282.911 83.002 C 283.027 83.001,284.325 85.408,285.796 88.350 M123.113 84.909 C 134.494 87.260,136.426 102.758,125.992 108.004 C 116.888 112.581,106.316 104.790,108.083 94.806 C 109.284 88.020,116.183 83.478,123.113 84.909 " stroke="none" fill="#f8f8f8" clip-path="url(#hotcat-white-detail-clip)" fill-rule="evenodd"></path><path id="path3" d="M204.050 46.150 C 206.443 46.182,210.357 46.182,212.750 46.150 C 215.143 46.118,213.185 46.092,208.400 46.092 C 203.615 46.092,201.658 46.118,204.050 46.150 M219.658 46.348 C 220.405 46.387,221.575 46.387,222.258 46.348 C 222.941 46.309,222.330 46.277,220.900 46.278 C 219.470 46.278,218.911 46.310,219.658 46.348 M226.800 46.620 C 228.615 46.708,232.813 46.973,236.129 47.209 C 239.444 47.445,242.324 47.604,242.529 47.563 C 243.350 47.400,228.047 46.397,225.300 46.435 C 223.993 46.453,224.405 46.504,226.800 46.620 M243.450 47.743 C 243.753 47.789,244.248 47.789,244.550 47.743 C 244.853 47.697,244.605 47.660,244.000 47.660 C 243.395 47.660,243.148 47.697,243.450 47.743 M245.850 47.943 C 246.153 47.989,246.648 47.989,246.950 47.943 C 247.253 47.897,247.005 47.860,246.400 47.860 C 245.795 47.860,245.548 47.897,245.850 47.943 M248.350 48.141 C 248.597 48.189,249.003 48.189,249.250 48.141 C 249.498 48.093,249.295 48.054,248.800 48.054 C 248.305 48.054,248.103 48.093,248.350 48.141 M255.100 48.802 C 258.070 49.125,260.680 49.367,260.900 49.339 C 261.596 49.250,254.612 48.494,251.400 48.310 C 250.465 48.257,252.130 48.478,255.100 48.802 M261.650 49.538 C 261.843 49.588,262.157 49.588,262.350 49.538 C 262.543 49.488,262.385 49.446,262.000 49.446 C 261.615 49.446,261.457 49.488,261.650 49.538 M263.352 49.741 C 263.601 49.789,263.961 49.787,264.152 49.737 C 264.344 49.687,264.140 49.648,263.700 49.650 C 263.260 49.653,263.104 49.694,263.352 49.741 M265.053 49.944 C 265.357 49.989,265.807 49.988,266.053 49.941 C 266.299 49.893,266.050 49.856,265.500 49.857 C 264.950 49.859,264.749 49.898,265.053 49.944 M266.600 50.055 C 266.743 50.214,273.385 51.233,273.776 51.155 C 273.954 51.120,272.750 50.889,271.100 50.642 C 269.450 50.395,267.740 50.136,267.300 50.068 C 266.860 49.999,266.545 49.994,266.600 50.055 M275.450 51.538 C 275.643 51.588,275.957 51.588,276.150 51.538 C 276.343 51.488,276.185 51.446,275.800 51.446 C 275.415 51.446,275.257 51.488,275.450 51.538 M278.000 51.851 C 278.142 51.997,283.409 52.858,283.514 52.753 C 283.562 52.705,282.769 52.520,281.751 52.344 C 279.232 51.906,277.880 51.728,278.000 51.851 M287.500 53.506 C 287.998 53.693,293.039 54.627,293.119 54.548 C 293.219 54.447,288.068 53.391,287.600 53.416 C 287.435 53.424,287.390 53.465,287.500 53.506 M296.617 55.278 C 296.760 55.412,301.241 56.226,301.333 56.134 C 301.380 56.086,300.403 55.856,299.160 55.622 C 296.875 55.192,296.466 55.136,296.617 55.278 M306.400 57.283 C 306.400 57.406,310.029 58.237,310.129 58.137 C 310.176 58.091,309.407 57.861,308.420 57.626 C 306.510 57.172,306.400 57.154,306.400 57.283 M314.400 59.311 C 315.335 59.577,316.235 59.787,316.400 59.779 C 316.817 59.758,313.593 58.831,313.100 58.829 C 312.880 58.829,313.465 59.046,314.400 59.311 M319.017 60.474 C 319.184 60.622,323.442 61.824,323.521 61.746 C 323.565 61.701,322.633 61.380,321.450 61.032 C 319.431 60.439,318.818 60.299,319.017 60.474 M324.700 62.200 C 324.920 62.295,325.235 62.372,325.400 62.372 C 325.589 62.372,325.552 62.308,325.300 62.200 C 325.080 62.105,324.765 62.028,324.600 62.028 C 324.411 62.028,324.448 62.092,324.700 62.200 M327.089 62.915 C 327.853 63.182,328.573 63.393,328.689 63.385 C 328.805 63.377,328.275 63.152,327.511 62.885 C 326.747 62.618,326.027 62.407,325.911 62.415 C 325.795 62.423,326.325 62.648,327.089 62.915 M329.820 63.679 C 329.975 63.844,334.614 65.405,334.891 65.385 C 335.006 65.376,334.065 65.015,332.800 64.582 C 329.905 63.592,329.673 63.521,329.820 63.679 M335.400 65.564 C 335.827 65.840,339.438 67.028,339.540 66.926 C 339.608 66.858,336.725 65.834,335.400 65.456 C 335.133 65.379,335.133 65.391,335.400 65.564 M275.223 67.950 C 274.575 69.242,273.356 71.640,272.516 73.278 C 271.676 74.916,271.026 76.293,271.072 76.339 C 271.118 76.385,272.358 74.033,273.828 71.113 L 276.500 65.803 282.948 65.801 L 289.397 65.800 290.500 68.000 C 291.107 69.210,291.647 70.200,291.701 70.200 C 291.754 70.200,291.283 69.165,290.653 67.900 L 289.508 65.600 282.956 65.600 L 276.403 65.600 275.223 67.950 M340.417 67.280 C 340.463 67.324,342.885 68.305,345.800 69.461 C 348.715 70.616,351.629 71.799,352.275 72.089 C 352.921 72.380,353.488 72.579,353.535 72.532 C 353.643 72.424,350.541 71.115,344.963 68.912 C 340.991 67.345,340.180 67.053,340.417 67.280 M116.900 69.621 C 115.449 69.830,112.777 70.443,112.878 70.545 C 112.918 70.585,113.884 70.416,115.025 70.170 C 117.750 69.582,123.327 69.525,126.100 70.058 C 127.090 70.248,128.125 70.446,128.400 70.499 C 128.675 70.552,128.539 70.474,128.098 70.325 C 125.823 69.555,119.934 69.185,116.900 69.621 M279.999 69.936 C 279.373 70.037,279.521 69.776,275.127 78.498 C 271.159 86.373,270.952 86.800,271.099 86.800 C 271.154 86.800,272.991 83.223,275.182 78.850 C 277.373 74.478,279.295 70.728,279.453 70.518 C 279.837 70.010,285.763 69.755,286.330 70.223 C 286.618 70.461,286.651 70.458,286.566 70.200 C 286.469 69.906,281.433 69.704,279.999 69.936 M110.700 71.170 C 109.238 71.751,107.986 72.378,108.260 72.392 C 108.348 72.396,108.708 72.251,109.060 72.068 C 109.412 71.886,110.375 71.485,111.200 71.178 C 112.025 70.871,112.565 70.618,112.400 70.617 C 112.235 70.615,111.470 70.864,110.700 71.170 M130.627 71.279 C 135.342 73.081,139.344 76.067,142.862 80.407 C 143.315 80.966,143.296 80.907,142.762 80.100 C 140.341 76.442,131.830 70.509,129.145 70.609 C 129.010 70.614,129.677 70.915,130.627 71.279 M287.442 72.294 C 287.792 73.005,288.113 73.554,288.153 73.514 C 288.242 73.424,287.033 71.000,286.899 71.000 C 286.847 71.000,287.091 71.582,287.442 72.294 M292.383 71.656 C 292.664 72.394,293.190 73.400,293.296 73.400 C 293.400 73.400,292.501 71.434,292.310 71.243 C 292.236 71.169,292.269 71.355,292.383 71.656 M353.817 72.682 C 353.863 72.727,355.407 73.447,357.249 74.280 C 359.090 75.114,362.308 76.653,364.399 77.699 C 366.489 78.746,368.200 79.557,368.200 79.502 C 368.200 79.346,360.213 75.388,356.936 73.919 C 354.246 72.715,353.582 72.451,353.817 72.682 M105.888 73.515 C 102.099 75.794,97.963 80.108,96.179 83.642 C 95.375 85.235,95.599 85.102,96.501 83.450 C 98.537 79.721,102.543 75.636,106.250 73.507 C 107.072 73.035,107.368 72.800,107.138 72.800 C 107.104 72.800,106.542 73.122,105.888 73.515 M282.649 73.650 C 282.349 74.023,281.576 75.600,281.693 75.600 C 281.748 75.600,282.025 75.143,282.308 74.585 C 282.765 73.683,282.860 73.599,283.161 73.835 C 283.466 74.073,283.472 74.065,283.226 73.750 C 282.898 73.333,282.902 73.333,282.649 73.650 M119.750 74.347 C 120.328 74.388,121.272 74.388,121.850 74.347 C 122.428 74.307,121.955 74.274,120.800 74.274 C 119.645 74.274,119.172 74.307,119.750 74.347 M285.200 77.800 C 286.191 79.780,287.047 81.400,287.102 81.400 C 287.157 81.400,286.391 79.780,285.400 77.800 C 284.409 75.820,283.553 74.200,283.498 74.200 C 283.443 74.200,284.209 75.820,285.200 77.800 M117.352 74.541 C 117.601 74.589,117.961 74.587,118.152 74.537 C 118.344 74.487,118.140 74.448,117.700 74.450 C 117.260 74.453,117.104 74.494,117.352 74.541 M123.552 74.541 C 123.801 74.589,124.161 74.587,124.352 74.537 C 124.544 74.487,124.340 74.448,123.900 74.450 C 123.460 74.453,123.304 74.494,123.552 74.541 M298.080 83.050 C 302.905 92.854,306.174 99.356,306.189 99.182 C 306.206 99.002,294.021 74.400,293.915 74.400 C 293.864 74.400,295.738 78.293,298.080 83.050 M115.500 74.696 C 115.390 74.732,114.503 75.000,113.530 75.293 C 112.556 75.586,111.798 75.864,111.845 75.911 C 111.892 75.959,112.467 75.816,113.122 75.595 C 113.777 75.374,114.895 75.066,115.607 74.912 C 116.334 74.755,116.637 74.632,116.300 74.632 C 115.970 74.632,115.610 74.661,115.500 74.696 M126.700 75.119 C 131.166 76.221,135.566 79.091,138.440 82.777 C 139.761 84.471,139.944 84.656,139.478 83.825 C 137.275 79.892,128.864 74.496,125.118 74.613 C 124.888 74.620,125.600 74.848,126.700 75.119 M289.342 76.093 C 289.748 76.914,290.113 77.553,290.153 77.513 C 290.242 77.424,288.833 74.600,288.699 74.600 C 288.646 74.600,288.936 75.272,289.342 76.093 M110.011 76.704 C 109.302 77.086,108.627 77.499,108.511 77.623 C 108.344 77.800,111.256 76.325,111.583 76.066 C 111.949 75.777,111.066 76.135,110.011 76.704 M280.545 77.645 C 280.129 78.421,279.824 79.091,279.867 79.134 C 279.910 79.176,280.280 78.572,280.691 77.791 C 281.101 77.010,281.406 76.340,281.369 76.303 C 281.331 76.265,280.960 76.869,280.545 77.645 M268.024 82.195 C 266.471 85.283,265.200 87.902,265.200 88.016 C 265.200 88.130,266.502 85.635,268.092 82.471 C 269.683 79.307,270.954 76.687,270.916 76.649 C 270.878 76.612,269.577 79.107,268.024 82.195 M106.787 78.725 C 103.605 81.068,100.030 85.600,99.315 88.200 C 99.239 88.475,99.572 87.918,100.054 86.963 C 101.583 83.937,104.036 81.023,106.800 78.947 C 108.163 77.924,108.310 77.800,108.162 77.800 C 108.097 77.800,107.478 78.216,106.787 78.725 M294.544 86.490 C 296.933 91.269,298.918 95.149,298.955 95.112 C 299.043 95.024,290.431 77.800,290.300 77.800 C 290.245 77.800,292.155 81.710,294.544 86.490 M368.500 79.742 C 368.610 79.854,369.330 80.288,370.100 80.704 C 370.870 81.121,371.410 81.370,371.300 81.258 C 371.190 81.146,370.470 80.712,369.700 80.296 C 368.930 79.879,368.390 79.630,368.500 79.742 M119.558 79.948 C 120.250 79.987,121.330 79.987,121.958 79.948 C 122.586 79.908,122.020 79.876,120.700 79.876 C 119.380 79.877,118.866 79.909,119.558 79.948 M278.700 81.200 C 278.312 81.970,278.040 82.600,278.095 82.600 C 278.150 82.600,278.512 81.970,278.900 81.200 C 279.288 80.430,279.560 79.800,279.505 79.800 C 279.450 79.800,279.088 80.430,278.700 81.200 M115.800 80.391 C 114.412 80.770,112.741 81.407,112.849 81.516 C 112.885 81.552,113.511 81.365,114.240 81.100 C 114.969 80.836,116.180 80.487,116.933 80.326 C 117.685 80.165,118.030 80.033,117.700 80.034 C 117.370 80.035,116.515 80.196,115.800 80.391 M125.598 80.599 C 126.312 80.803,126.929 80.938,126.968 80.899 C 127.068 80.799,124.997 80.197,124.614 80.214 C 124.441 80.222,124.884 80.395,125.598 80.599 M143.702 81.683 C 143.895 82.003,144.229 82.566,144.446 82.933 C 144.662 83.300,144.881 83.600,144.933 83.600 C 145.072 83.600,144.239 82.171,143.766 81.600 L 143.353 81.100 143.702 81.683 M129.300 82.122 C 129.960 82.519,130.995 83.246,131.600 83.739 L 132.700 84.634 131.700 83.706 C 130.740 82.815,128.636 81.399,128.274 81.401 C 128.178 81.401,128.640 81.726,129.300 82.122 M371.600 81.467 C 371.600 81.554,372.289 81.972,374.200 83.046 C 374.860 83.417,374.873 83.418,374.435 83.058 C 373.897 82.616,371.600 81.327,371.600 81.467 M287.200 81.668 C 287.200 81.819,288.393 83.889,288.396 83.743 C 288.401 83.524,287.414 81.600,287.297 81.600 C 287.243 81.600,287.200 81.631,287.200 81.668 M110.700 82.619 C 109.409 83.489,107.231 85.526,106.551 86.500 C 106.320 86.830,106.824 86.363,107.671 85.463 C 108.992 84.059,109.872 83.354,111.922 82.062 C 112.130 81.931,112.210 81.821,112.100 81.817 C 111.990 81.814,111.360 82.175,110.700 82.619 M282.240 83.905 C 281.641 85.138,281.699 85.330,282.313 84.150 C 282.937 82.951,282.852 82.914,283.800 84.800 C 284.242 85.680,284.648 86.400,284.701 86.400 C 284.754 86.400,284.418 85.635,283.954 84.700 C 282.983 82.741,282.838 82.674,282.240 83.905 M375.000 83.466 C 375.000 83.520,376.080 84.245,377.400 85.076 C 378.720 85.907,379.800 86.545,379.800 86.494 C 379.800 86.444,379.058 85.926,378.150 85.343 C 375.740 83.796,375.000 83.355,375.000 83.466 M277.081 84.319 C 276.902 84.749,276.673 85.258,276.571 85.450 C 276.469 85.642,276.433 85.800,276.490 85.800 C 276.664 85.800,277.634 83.768,277.516 83.649 C 277.455 83.588,277.259 83.890,277.081 84.319 M289.039 85.350 C 289.467 86.325,290.000 87.206,290.000 86.939 C 290.000 86.731,288.814 84.400,288.708 84.400 C 288.661 84.400,288.810 84.828,289.039 85.350 M120.453 84.744 C 120.757 84.789,121.207 84.788,121.453 84.741 C 121.699 84.693,121.450 84.656,120.900 84.657 C 120.350 84.659,120.149 84.698,120.453 84.744 M145.840 85.605 C 146.069 86.157,146.297 86.570,146.345 86.521 C 146.449 86.418,145.670 84.600,145.522 84.600 C 145.467 84.600,145.610 85.052,145.840 85.605 M123.700 85.200 C 123.920 85.295,124.235 85.372,124.400 85.372 C 124.589 85.372,124.552 85.308,124.300 85.200 C 124.080 85.105,123.765 85.028,123.600 85.028 C 123.411 85.028,123.448 85.092,123.700 85.200 M133.536 85.624 C 133.885 85.996,134.673 87.101,135.286 88.081 C 135.899 89.060,136.400 89.759,136.400 89.635 C 136.400 89.264,133.526 85.135,133.200 85.038 C 133.035 84.989,133.186 85.253,133.536 85.624 M140.637 86.135 C 141.000 86.814,141.326 87.340,141.362 87.304 C 141.454 87.213,140.699 85.782,140.304 85.300 C 140.124 85.080,140.274 85.456,140.637 86.135 M115.778 85.494 C 115.019 85.773,113.400 86.734,113.400 86.905 C 113.400 86.960,113.738 86.793,114.150 86.534 C 114.563 86.274,115.395 85.873,116.000 85.641 C 116.605 85.410,116.965 85.222,116.800 85.225 C 116.635 85.227,116.175 85.348,115.778 85.494 M124.817 85.476 C 125.020 85.663,127.400 86.795,127.400 86.706 C 127.400 86.594,125.089 85.400,124.872 85.400 C 124.796 85.400,124.771 85.434,124.817 85.476 M94.906 86.021 C 94.427 87.316,93.815 89.281,93.873 89.340 C 93.913 89.379,94.221 88.623,94.558 87.658 C 94.896 86.694,95.135 85.868,95.090 85.824 C 95.046 85.779,94.963 85.868,94.906 86.021 M279.963 88.450 C 278.333 91.670,277.799 92.800,277.908 92.800 C 277.957 92.800,278.764 91.270,279.700 89.400 C 280.636 87.530,281.357 86.000,281.303 86.000 C 281.248 86.000,280.645 87.103,279.963 88.450 M380.061 86.737 C 380.126 86.841,380.739 87.320,381.424 87.801 C 382.109 88.281,382.603 88.567,382.522 88.436 C 382.441 88.305,381.828 87.827,381.159 87.372 C 380.491 86.918,379.996 86.632,380.061 86.737 M128.930 88.128 C 129.716 88.905,130.506 89.824,130.685 90.170 C 130.864 90.517,131.055 90.800,131.110 90.800 C 131.606 90.800,129.649 88.381,128.322 87.352 C 127.831 86.972,128.077 87.285,128.930 88.128 M275.177 88.150 C 274.311 89.877,274.237 90.109,274.891 89.056 C 275.423 88.200,276.068 86.800,275.930 86.800 C 275.889 86.800,275.550 87.408,275.177 88.150 M112.300 87.600 C 111.885 87.930,111.625 88.198,111.722 88.195 C 111.926 88.188,113.364 87.014,113.178 87.005 C 113.110 87.002,112.715 87.270,112.300 87.600 M285.000 87.072 C 285.000 87.289,286.194 89.600,286.306 89.600 C 286.361 89.600,286.124 89.038,285.779 88.350 C 285.126 87.047,285.000 86.840,285.000 87.072 M105.209 88.562 C 104.764 89.311,104.400 90.008,104.401 90.112 C 104.401 90.215,104.563 90.030,104.760 89.700 C 105.750 88.043,106.207 87.200,106.117 87.200 C 106.063 87.200,105.654 87.813,105.209 88.562 M267.911 92.811 C 266.520 95.581,265.414 97.881,265.454 97.921 C 265.494 97.961,266.664 95.726,268.055 92.955 C 269.446 90.184,270.551 87.885,270.512 87.845 C 270.472 87.805,269.301 90.040,267.911 92.811 M290.800 88.900 C 291.034 89.450,291.315 89.990,291.425 90.100 C 291.535 90.210,291.434 89.850,291.200 89.300 C 290.966 88.750,290.685 88.210,290.575 88.100 C 290.465 87.990,290.566 88.350,290.800 88.900 M264.421 89.621 C 264.057 90.284,263.794 90.861,263.838 90.904 C 263.881 90.948,264.215 90.441,264.579 89.779 C 264.943 89.116,265.206 88.539,265.162 88.496 C 265.119 88.452,264.785 88.959,264.421 89.621 M110.763 89.150 C 110.282 89.668,109.301 91.129,109.723 90.700 C 110.086 90.331,111.428 88.600,111.351 88.600 C 111.309 88.600,111.045 88.848,110.763 89.150 M141.915 88.900 C 141.992 89.120,142.262 90.110,142.514 91.100 C 142.767 92.090,142.980 92.748,142.987 92.562 C 143.010 91.973,142.386 89.547,142.074 89.013 C 141.902 88.718,141.834 88.670,141.915 88.900 M147.001 88.750 C 147.002 88.833,147.089 89.215,147.194 89.600 C 148.228 93.376,148.270 99.228,147.295 103.800 C 147.190 104.296,147.190 104.296,147.393 103.838 C 148.398 101.555,148.497 94.286,147.576 90.350 C 147.223 88.843,146.997 88.213,147.001 88.750 M382.800 88.650 C 382.800 88.704,383.903 89.647,385.250 90.745 C 388.480 93.379,392.000 96.584,392.000 96.892 C 392.000 97.204,386.538 102.543,384.727 104.000 C 383.975 104.605,383.122 105.311,382.830 105.568 L 382.300 106.037 383.000 105.571 C 384.179 104.785,387.573 101.786,390.096 99.299 L 392.492 96.937 390.596 95.149 C 389.553 94.165,387.485 92.366,386.000 91.150 C 382.717 88.463,382.800 88.528,382.800 88.650 M98.837 89.299 C 98.433 90.185,97.798 92.946,97.700 94.242 C 97.615 95.375,97.633 95.331,97.888 93.800 C 98.044 92.865,98.399 91.384,98.677 90.509 C 99.188 88.904,99.258 88.375,98.837 89.299 M136.446 90.210 C 136.865 91.388,137.435 93.778,137.593 95.022 L 137.782 96.500 137.696 95.000 C 137.615 93.594,136.822 90.337,136.487 90.036 C 136.404 89.961,136.386 90.039,136.446 90.210 M93.130 92.045 C 92.468 95.405,92.507 99.432,93.235 102.864 C 93.578 104.483,93.603 103.794,93.266 101.992 C 92.812 99.566,92.814 94.608,93.268 92.327 C 93.462 91.352,93.584 90.518,93.539 90.472 C 93.494 90.427,93.310 91.135,93.130 92.045 M103.696 92.031 C 102.774 94.921,102.779 98.702,103.710 101.903 C 104.236 103.716,104.212 103.073,103.671 100.899 C 102.999 98.198,103.082 94.559,103.871 92.109 C 104.153 91.233,104.349 90.482,104.307 90.440 C 104.264 90.397,103.989 91.113,103.696 92.031 M268.781 100.850 C 265.910 106.597,263.650 111.210,263.758 111.100 C 264.149 110.703,274.294 90.400,274.101 90.400 C 274.046 90.400,271.652 95.103,268.781 100.850 M286.821 90.700 C 286.821 90.810,287.577 92.385,288.500 94.200 C 289.423 96.015,290.179 97.410,290.179 97.300 C 290.179 97.190,289.423 95.615,288.500 93.800 C 287.577 91.985,286.821 90.590,286.821 90.700 M108.881 92.125 C 108.607 92.743,108.409 93.325,108.442 93.418 C 108.474 93.510,108.742 93.004,109.038 92.293 C 109.698 90.706,109.569 90.568,108.881 92.125 M131.216 91.060 C 131.207 91.148,131.350 91.508,131.534 91.860 C 131.718 92.212,132.036 92.995,132.241 93.600 C 132.498 94.359,132.579 94.483,132.502 94.002 C 132.397 93.341,131.251 90.720,131.216 91.060 M292.012 91.238 C 291.993 91.452,298.858 105.208,298.942 105.124 C 298.983 105.084,297.443 101.911,295.520 98.075 C 293.597 94.239,292.018 91.162,292.012 91.238 M262.637 93.177 C 262.177 94.041,261.801 94.827,261.803 94.924 C 261.804 95.021,262.215 94.348,262.716 93.430 C 263.217 92.511,263.592 91.726,263.550 91.683 C 263.508 91.641,263.097 92.313,262.637 93.177 M282.290 93.420 C 282.005 93.981,281.853 94.391,281.952 94.330 C 282.050 94.269,282.299 93.847,282.504 93.391 L 282.878 92.563 283.841 94.481 C 284.370 95.537,284.849 96.400,284.904 96.400 C 284.959 96.400,284.552 95.500,284.000 94.400 C 282.825 92.059,282.945 92.128,282.290 93.420 M143.046 93.600 C 143.046 93.985,143.088 94.142,143.138 93.950 C 143.188 93.758,143.188 93.442,143.138 93.250 C 143.088 93.058,143.046 93.215,143.046 93.600 M277.021 94.221 C 276.657 94.884,276.400 95.466,276.450 95.516 C 276.500 95.566,276.833 95.059,277.189 94.389 C 277.546 93.720,277.804 93.137,277.761 93.094 C 277.718 93.051,277.385 93.559,277.021 94.221 M108.134 94.378 C 108.060 94.748,108.010 95.241,108.022 95.475 C 108.034 95.709,108.124 95.495,108.221 95.000 C 108.318 94.505,108.369 94.011,108.333 93.903 C 108.298 93.795,108.208 94.009,108.134 94.378 M143.277 97.000 C 143.277 98.375,143.309 98.938,143.348 98.250 C 143.387 97.563,143.387 96.438,143.348 95.750 C 143.309 95.063,143.277 95.625,143.277 97.000 M132.650 95.500 C 132.653 95.940,132.694 96.096,132.741 95.848 C 132.789 95.599,132.787 95.239,132.737 95.048 C 132.687 94.856,132.648 95.060,132.650 95.500 M97.470 97.200 C 97.470 98.135,97.504 98.517,97.546 98.050 C 97.589 97.583,97.589 96.817,97.546 96.350 C 97.504 95.883,97.470 96.265,97.470 97.200 M260.590 97.221 C 260.141 98.112,259.807 98.874,259.847 98.913 C 259.886 98.953,260.296 98.223,260.758 97.292 C 261.219 96.362,261.554 95.600,261.501 95.600 C 261.448 95.600,261.038 96.329,260.590 97.221 M279.858 98.050 C 278.518 100.684,278.186 101.400,278.308 101.400 C 278.357 101.400,279.029 100.140,279.800 98.600 C 280.571 97.060,281.158 95.800,281.103 95.800 C 281.048 95.800,280.488 96.813,279.858 98.050 M300.190 97.850 C 300.721 98.978,302.477 102.600,304.094 105.900 C 305.711 109.200,307.119 112.115,307.223 112.378 C 307.326 112.640,307.455 112.812,307.508 112.758 C 307.562 112.705,306.243 109.880,304.578 106.481 C 302.913 103.081,301.072 99.288,300.487 98.050 C 299.902 96.813,299.379 95.800,299.325 95.800 C 299.271 95.800,299.660 96.723,300.190 97.850 M107.854 97.000 C 107.854 97.495,107.893 97.698,107.941 97.450 C 107.989 97.203,107.989 96.798,107.941 96.550 C 107.893 96.303,107.854 96.505,107.854 97.000 M275.290 97.620 C 274.896 98.402,274.607 99.074,274.647 99.113 C 274.687 99.153,275.052 98.514,275.458 97.693 C 275.864 96.872,276.154 96.200,276.101 96.200 C 276.048 96.200,275.683 96.839,275.290 97.620 M285.200 97.069 C 285.200 97.287,288.392 103.600,288.502 103.600 C 288.592 103.600,285.467 97.220,285.277 97.017 C 285.235 96.971,285.200 96.994,285.200 97.069 M132.654 98.200 C 132.654 98.695,132.693 98.898,132.741 98.650 C 132.789 98.403,132.789 97.998,132.741 97.750 C 132.693 97.502,132.654 97.705,132.654 98.200 M137.633 98.300 C 137.466 102.762,134.610 107.895,130.819 110.547 C 129.125 111.731,128.883 111.968,129.971 111.375 C 134.021 109.167,138.105 102.248,137.749 98.197 L 137.670 97.300 137.633 98.300 M108.046 98.800 C 108.046 99.185,108.088 99.343,108.138 99.150 C 108.188 98.958,108.188 98.642,108.138 98.450 C 108.088 98.258,108.046 98.415,108.046 98.800 M264.442 99.908 C 263.981 100.838,263.646 101.600,263.699 101.600 C 263.832 101.600,265.442 98.376,265.353 98.287 C 265.314 98.247,264.904 98.977,264.442 99.908 M290.600 98.468 C 290.600 98.687,291.392 100.200,291.507 100.200 C 291.642 100.200,291.025 98.746,290.790 98.510 C 290.685 98.406,290.600 98.387,290.600 98.468 M97.623 99.300 C 97.568 100.396,98.664 105.203,98.912 104.955 C 98.960 104.907,98.859 104.459,98.689 103.959 C 98.519 103.459,98.214 102.117,98.011 100.975 C 97.809 99.834,97.634 99.080,97.623 99.300 M132.219 100.200 C 131.546 102.826,129.428 105.741,127.189 107.123 C 125.736 108.020,125.632 108.225,127.012 107.474 C 129.434 106.156,133.057 100.870,132.560 99.379 C 132.519 99.258,132.366 99.627,132.219 100.200 M258.890 100.620 C 258.496 101.402,258.207 102.074,258.247 102.113 C 258.287 102.153,258.652 101.514,259.058 100.693 C 259.464 99.872,259.754 99.200,259.701 99.200 C 259.648 99.200,259.283 99.839,258.890 100.620 M108.306 100.100 C 108.372 100.430,108.647 101.150,108.916 101.700 C 109.461 102.814,109.382 102.498,108.665 100.700 C 108.402 100.040,108.240 99.770,108.306 100.100 M143.046 100.200 C 143.046 100.585,143.088 100.743,143.138 100.550 C 143.188 100.358,143.188 100.043,143.138 99.850 C 143.088 99.658,143.046 99.815,143.046 100.200 M272.601 102.998 C 271.721 104.756,271.004 106.264,271.009 106.348 C 271.020 106.542,271.550 105.543,273.129 102.350 C 273.822 100.948,274.348 99.800,274.296 99.800 C 274.245 99.800,273.482 101.239,272.601 102.998 M307.275 101.650 C 308.315 103.881,309.776 106.746,309.790 106.581 C 309.805 106.399,306.607 99.800,306.504 99.800 C 306.454 99.800,306.801 100.633,307.275 101.650 M142.533 102.547 C 142.332 103.401,142.123 104.235,142.068 104.400 C 141.982 104.662,141.995 104.663,142.174 104.405 C 142.432 104.035,143.063 101.490,142.968 101.205 C 142.930 101.089,142.733 101.692,142.533 102.547 M292.010 101.224 C 291.995 101.404,295.015 107.600,295.118 107.600 C 295.166 107.600,295.082 107.308,294.932 106.950 C 294.526 105.988,292.023 101.080,292.010 101.224 M262.842 103.106 C 262.491 103.818,262.247 104.400,262.299 104.400 C 262.433 104.400,263.642 101.976,263.553 101.886 C 263.513 101.846,263.192 102.395,262.842 103.106 M278.649 110.500 C 276.422 114.955,274.645 118.600,274.700 118.600 C 274.754 118.600,276.601 114.996,278.804 110.591 C 281.418 105.366,282.888 102.631,283.036 102.722 C 283.174 102.808,283.206 102.772,283.119 102.631 C 282.835 102.172,282.638 102.519,278.649 110.500 M257.404 103.592 C 257.182 104.028,257.000 104.455,257.001 104.542 C 257.002 104.733,257.672 103.642,257.856 103.150 C 258.095 102.513,257.815 102.787,257.404 103.592 M276.690 104.220 C 276.296 105.002,276.007 105.674,276.047 105.713 C 276.087 105.753,276.452 105.114,276.858 104.293 C 277.264 103.472,277.554 102.800,277.501 102.800 C 277.448 102.800,277.083 103.439,276.690 104.220 M104.206 103.300 C 104.202 104.343,107.231 108.520,109.140 110.102 C 110.329 111.088,114.137 113.207,114.699 113.196 C 114.809 113.194,113.910 112.705,112.700 112.110 C 109.123 110.351,106.997 108.297,105.106 104.775 C 104.611 103.854,104.206 103.190,104.206 103.300 M109.936 103.769 C 110.659 105.098,114.400 108.190,115.295 108.198 C 115.403 108.199,114.909 107.863,114.198 107.450 C 112.940 106.720,110.927 104.914,110.020 103.700 L 109.572 103.100 109.936 103.769 M283.783 104.251 C 284.063 104.994,284.590 106.000,284.698 106.000 C 284.828 106.000,284.007 104.133,283.775 103.900 C 283.648 103.773,283.651 103.902,283.783 104.251 M288.821 104.300 C 288.821 104.410,289.441 105.715,290.200 107.200 C 290.959 108.685,291.579 109.810,291.579 109.700 C 291.579 109.590,290.959 108.285,290.200 106.800 C 289.441 105.315,288.821 104.190,288.821 104.300 M93.812 104.756 C 93.776 105.544,95.828 110.221,96.684 111.300 C 96.858 111.520,96.575 110.890,96.054 109.900 C 95.533 108.910,94.818 107.290,94.465 106.300 C 94.112 105.310,93.818 104.615,93.812 104.756 M99.120 105.600 C 99.295 106.262,100.281 108.196,100.701 108.700 C 100.900 108.939,100.866 108.808,100.616 108.374 C 100.386 107.975,99.925 107.075,99.593 106.374 C 99.261 105.673,99.048 105.325,99.120 105.600 M146.010 107.406 C 145.264 109.212,143.578 112.154,142.346 113.800 C 141.893 114.405,141.681 114.771,141.876 114.613 C 143.022 113.684,147.147 106.280,146.743 105.876 C 146.703 105.837,146.373 106.525,146.010 107.406 M259.200 110.200 C 257.989 112.620,257.043 114.600,257.098 114.600 C 257.153 114.600,258.073 112.868,259.142 110.750 C 261.305 106.467,261.621 105.800,261.491 105.800 C 261.442 105.800,260.411 107.780,259.200 110.200 M255.840 106.904 C 255.601 107.397,255.447 107.800,255.499 107.800 C 255.634 107.800,256.442 106.175,256.352 106.085 C 256.310 106.043,256.080 106.412,255.840 106.904 M274.089 109.421 C 273.147 111.303,272.407 112.874,272.445 112.912 C 272.484 112.950,273.299 111.411,274.257 109.491 C 275.215 107.571,275.954 106.000,275.900 106.000 C 275.846 106.000,275.031 107.540,274.089 109.421 M379.809 107.719 C 378.549 108.645,377.424 109.509,377.309 109.640 C 377.194 109.771,377.415 109.651,377.800 109.373 C 378.185 109.095,379.231 108.358,380.124 107.735 C 381.474 106.794,382.489 105.944,382.174 106.018 C 382.134 106.027,381.069 106.793,379.809 107.719 M284.820 106.300 C 284.820 106.410,285.216 107.265,285.700 108.200 C 286.184 109.135,286.580 109.810,286.580 109.700 C 286.580 109.590,286.184 108.735,285.700 107.800 C 285.216 106.865,284.820 106.190,284.820 106.300 M299.411 106.246 C 299.395 106.464,304.267 116.199,304.351 116.116 C 304.391 116.076,303.298 113.806,301.922 111.072 C 300.547 108.337,299.417 106.166,299.411 106.246 M140.497 107.750 C 139.360 109.827,137.962 111.599,135.943 113.528 C 134.929 114.496,134.370 115.098,134.701 114.865 C 136.556 113.560,139.737 109.701,140.978 107.250 C 141.661 105.900,141.311 106.264,140.497 107.750 M268.028 112.128 C 266.697 114.739,265.641 116.907,265.680 116.946 C 265.719 116.986,266.837 114.879,268.164 112.264 C 269.491 109.649,270.547 107.481,270.512 107.445 C 270.476 107.410,269.358 109.517,268.028 112.128 M310.410 108.117 C 310.424 108.347,313.175 113.747,313.190 113.570 C 313.202 113.416,310.685 108.219,310.516 108.050 C 310.452 107.986,310.405 108.016,310.410 108.117 M116.392 108.624 C 116.882 108.841,117.692 109.058,118.192 109.105 L 119.100 109.190 118.300 109.009 C 117.860 108.910,117.106 108.687,116.625 108.514 C 115.430 108.085,115.308 108.143,116.392 108.624 M123.971 108.605 C 123.350 108.807,122.000 109.062,120.971 109.174 L 119.100 109.377 120.953 109.281 C 122.555 109.198,125.400 108.565,125.400 108.292 C 125.400 108.160,125.234 108.196,123.971 108.605 M295.600 108.672 C 295.600 108.889,296.794 111.200,296.906 111.200 C 296.961 111.200,296.724 110.638,296.379 109.950 C 295.726 108.647,295.600 108.440,295.600 108.672 M101.499 109.900 C 102.519 111.313,104.197 113.150,105.162 113.909 C 105.936 114.519,105.885 114.443,104.868 113.474 C 104.190 112.828,103.120 111.670,102.491 110.900 C 101.115 109.216,100.713 108.810,101.499 109.900 M253.747 110.992 C 253.336 111.743,253.001 112.434,253.003 112.529 C 253.004 112.623,253.371 112.040,253.819 111.233 C 254.266 110.426,254.601 109.734,254.563 109.696 C 254.525 109.658,254.157 110.241,253.747 110.992 M375.797 110.527 C 374.433 111.430,374.024 111.820,375.113 111.179 C 376.016 110.647,377.156 109.816,376.997 109.806 C 376.941 109.803,376.401 110.127,375.797 110.527 M287.010 110.950 C 287.025 111.163,289.977 116.928,289.990 116.769 C 290.004 116.588,287.184 110.800,287.082 110.800 C 287.037 110.800,287.005 110.868,287.010 110.950 M292.221 111.300 C 292.220 111.410,293.633 114.290,295.360 117.700 L 298.500 123.900 300.850 123.956 C 303.384 124.017,303.476 123.974,302.879 123.000 C 302.593 122.533,302.618 122.762,302.941 123.550 C 303.019 123.741,302.520 123.800,300.822 123.800 L 298.601 123.800 295.411 117.450 C 293.657 113.958,292.221 111.190,292.221 111.300 M371.600 113.098 C 368.692 114.829,368.238 115.128,369.200 114.680 C 370.017 114.299,374.200 111.786,374.200 111.675 C 374.200 111.552,374.194 111.555,371.600 113.098 M97.125 112.000 C 97.754 113.317,100.835 116.788,102.498 118.052 C 102.939 118.387,102.563 117.971,101.663 117.126 C 100.240 115.793,98.559 113.874,97.341 112.195 C 97.143 111.923,97.046 111.835,97.125 112.000 M127.453 112.453 C 126.657 112.794,126.039 113.105,126.079 113.145 C 126.187 113.254,128.786 112.184,128.914 111.978 C 129.050 111.757,129.167 111.719,127.453 112.453 M262.490 113.220 C 262.096 114.002,261.807 114.674,261.847 114.713 C 261.887 114.753,262.252 114.114,262.658 113.293 C 263.064 112.472,263.354 111.800,263.301 111.800 C 263.248 111.800,262.883 112.439,262.490 113.220 M297.405 112.258 C 297.397 112.508,302.424 122.443,302.513 122.353 C 302.557 122.310,301.427 119.984,300.002 117.187 C 298.577 114.389,297.408 112.171,297.405 112.258 M248.901 120.599 C 246.865 124.668,245.200 128.043,245.200 128.099 C 245.200 128.155,250.757 128.199,257.550 128.197 L 269.900 128.195 272.056 123.970 C 273.242 121.646,274.179 119.712,274.138 119.672 C 274.098 119.631,273.099 121.489,271.919 123.799 L 269.774 128.000 257.586 128.000 L 245.399 128.000 249.100 120.600 C 251.136 116.530,252.756 113.200,252.701 113.200 C 252.646 113.200,250.936 116.530,248.901 120.599 M122.200 113.827 C 121.595 113.924,120.335 113.964,119.400 113.915 C 117.734 113.829,117.724 113.831,118.900 114.024 C 120.112 114.224,122.312 114.124,123.600 113.811 C 124.550 113.580,123.672 113.590,122.200 113.827 M270.511 116.579 C 269.678 118.240,269.038 119.600,269.087 119.600 C 269.227 119.600,272.199 113.733,272.106 113.640 C 272.061 113.594,271.343 114.917,270.511 116.579 M106.900 115.294 C 107.706 116.004,111.671 118.090,112.600 118.293 L 113.100 118.402 112.600 118.168 C 112.325 118.039,111.353 117.592,110.439 117.174 C 109.526 116.757,108.176 116.005,107.439 115.502 C 106.279 114.711,106.207 114.683,106.900 115.294 M308.800 115.500 C 309.034 116.050,309.315 116.590,309.425 116.700 C 309.535 116.810,309.434 116.450,309.200 115.900 C 308.966 115.350,308.685 114.810,308.575 114.700 C 308.465 114.590,308.566 114.950,308.800 115.500 M260.800 116.600 C 260.358 117.480,260.041 118.200,260.096 118.200 C 260.151 118.200,260.558 117.480,261.000 116.600 C 261.442 115.720,261.759 115.000,261.704 115.000 C 261.649 115.000,261.242 115.720,260.800 116.600 M314.068 115.650 C 314.469 116.602,316.378 120.322,316.390 120.173 C 316.404 119.995,313.978 115.000,313.877 115.000 C 313.832 115.000,313.918 115.293,314.068 115.650 M133.096 115.728 C 131.983 116.466,131.740 116.757,132.700 116.201 C 133.474 115.753,134.187 115.200,133.989 115.200 C 133.936 115.200,133.534 115.438,133.096 115.728 M139.600 116.838 C 138.665 117.728,138.260 118.181,138.700 117.844 C 139.472 117.253,141.581 115.190,141.392 115.210 C 141.342 115.215,140.535 115.948,139.600 116.838 M365.350 116.577 C 362.845 117.909,361.942 118.466,363.109 117.958 C 364.600 117.308,368.477 115.107,367.950 115.210 C 367.923 115.215,366.752 115.830,365.350 116.577 M255.842 116.906 C 255.491 117.618,255.247 118.200,255.299 118.200 C 255.433 118.200,256.642 115.776,256.553 115.686 C 256.513 115.646,256.192 116.195,255.842 116.906 M129.300 117.719 C 128.750 117.986,128.517 118.148,128.783 118.079 C 129.468 117.899,130.600 117.413,130.600 117.297 C 130.600 117.131,130.334 117.217,129.300 117.719 M304.802 117.256 C 304.799 117.473,305.985 119.800,306.099 119.800 C 306.150 119.800,306.082 119.553,305.948 119.250 C 305.590 118.442,304.805 117.075,304.802 117.256 M309.800 117.472 C 309.800 117.689,311.193 120.400,311.305 120.400 C 311.360 120.400,311.078 119.748,310.679 118.950 C 309.930 117.454,309.800 117.235,309.800 117.472 M290.411 117.840 C 290.394 118.063,293.262 123.805,293.347 123.720 C 293.389 123.677,292.748 122.306,291.923 120.671 C 291.097 119.037,290.416 117.763,290.411 117.840 M263.734 120.533 C 262.996 121.921,262.340 123.270,262.275 123.529 L 262.157 124.000 264.528 123.997 L 266.900 123.994 267.950 122.015 C 268.528 120.926,268.997 119.960,268.994 119.868 C 268.990 119.776,268.488 120.623,267.877 121.750 L 266.768 123.800 264.584 123.800 C 263.383 123.800,262.400 123.740,262.400 123.667 C 262.400 123.594,263.034 122.323,263.808 120.842 C 264.583 119.362,265.185 118.118,265.146 118.079 C 265.106 118.040,264.471 119.144,263.734 120.533 M113.500 118.600 C 113.720 118.695,114.035 118.772,114.200 118.772 C 114.389 118.772,114.352 118.708,114.100 118.600 C 113.880 118.505,113.565 118.428,113.400 118.428 C 113.211 118.428,113.248 118.492,113.500 118.600 M136.454 119.329 C 135.769 119.821,134.374 120.666,133.354 121.208 C 131.308 122.294,131.086 122.565,133.056 121.573 C 134.550 120.821,137.268 119.100,137.606 118.692 C 137.957 118.269,137.838 118.335,136.454 119.329 M259.242 119.706 C 258.891 120.418,258.647 121.000,258.699 121.000 C 258.833 121.000,260.042 118.576,259.953 118.486 C 259.913 118.446,259.592 118.995,259.242 119.706 M103.957 119.138 C 104.602 119.690,106.200 120.686,106.200 120.535 C 106.200 120.493,105.547 120.035,104.750 119.517 C 103.953 119.000,103.596 118.829,103.957 119.138 M356.666 120.970 C 354.007 122.250,351.858 123.324,351.890 123.356 C 352.035 123.502,361.600 118.914,361.600 118.698 C 361.600 118.644,361.578 118.609,361.550 118.621 C 361.523 118.633,359.325 119.690,356.666 120.970 M114.617 118.873 C 115.343 119.666,123.968 119.746,125.685 118.975 C 126.054 118.809,126.045 118.800,125.600 118.890 C 122.711 119.475,118.105 119.464,115.100 118.865 C 114.770 118.799,114.552 118.803,114.617 118.873 M253.502 121.397 C 252.090 124.212,251.983 124.000,254.803 124.000 L 257.206 124.000 257.602 123.350 C 257.820 122.993,257.995 122.610,257.990 122.500 C 257.986 122.390,257.784 122.637,257.541 123.048 L 257.100 123.796 254.850 123.798 C 253.613 123.799,252.602 123.733,252.605 123.650 C 252.607 123.567,252.926 122.915,253.314 122.200 C 254.132 120.689,254.816 119.200,254.690 119.200 C 254.643 119.200,254.108 120.189,253.502 121.397 M306.420 120.500 C 306.420 120.610,306.771 121.375,307.200 122.200 C 307.629 123.025,307.980 123.610,307.980 123.500 C 307.980 123.390,307.629 122.625,307.200 121.800 C 306.771 120.975,306.420 120.390,306.420 120.500 M106.400 120.680 C 106.400 120.848,107.822 121.645,107.930 121.537 C 107.990 121.477,107.670 121.240,107.219 121.010 C 106.769 120.780,106.400 120.631,106.400 120.680 M316.620 120.900 C 316.620 121.010,317.016 121.865,317.500 122.800 C 317.984 123.735,318.380 124.410,318.380 124.300 C 318.380 124.190,317.984 123.335,317.500 122.400 C 317.016 121.465,316.620 120.790,316.620 120.900 M311.600 121.072 C 311.600 121.149,311.870 121.746,312.200 122.400 C 312.530 123.054,312.800 123.633,312.800 123.688 C 312.800 123.743,311.697 123.816,310.350 123.851 L 307.900 123.914 310.450 123.957 C 313.355 124.006,313.268 124.080,312.380 122.325 C 311.738 121.057,311.600 120.836,311.600 121.072 M109.600 122.281 C 109.600 122.396,112.972 123.602,113.260 123.590 C 113.392 123.585,112.645 123.270,111.600 122.890 C 109.552 122.147,109.600 122.161,109.600 122.281 M129.200 122.924 C 128.155 123.290,127.442 123.592,127.615 123.595 C 127.986 123.601,130.621 122.723,131.141 122.421 C 131.714 122.087,131.232 122.213,129.200 122.924 M350.800 123.700 C 350.525 123.857,350.390 123.986,350.500 123.986 C 350.610 123.986,350.925 123.857,351.200 123.700 C 351.475 123.543,351.610 123.414,351.500 123.414 C 351.390 123.414,351.075 123.543,350.800 123.700 M115.752 124.141 C 116.001 124.189,116.361 124.187,116.552 124.137 C 116.744 124.087,116.540 124.048,116.100 124.050 C 115.660 124.053,115.504 124.094,115.752 124.141 M124.250 124.138 C 124.442 124.188,124.758 124.188,124.950 124.138 C 125.142 124.088,124.985 124.046,124.600 124.046 C 124.215 124.046,124.058 124.088,124.250 124.138 M348.700 124.593 C 348.040 124.908,347.590 125.169,347.700 125.173 C 347.810 125.177,348.440 124.922,349.100 124.607 C 349.760 124.292,350.210 124.031,350.100 124.027 C 349.990 124.023,349.360 124.278,348.700 124.593 M118.650 124.349 C 119.613 124.386,121.188 124.386,122.150 124.349 C 123.113 124.312,122.325 124.282,120.400 124.282 C 118.475 124.282,117.688 124.312,118.650 124.349 M294.295 125.900 C 294.584 126.560,294.914 127.190,295.027 127.300 C 295.140 127.410,294.995 126.960,294.705 126.300 C 294.416 125.640,294.086 125.010,293.973 124.900 C 293.860 124.790,294.005 125.240,294.295 125.900 M344.341 126.334 C 343.374 126.727,342.620 127.087,342.667 127.134 C 342.744 127.210,346.187 125.862,346.383 125.678 C 346.606 125.470,345.943 125.683,344.341 126.334 M319.201 126.301 C 319.305 126.577,319.530 127.072,319.701 127.401 L 320.010 128.000 307.845 128.000 C 298.381 128.000,295.624 127.944,295.428 127.750 C 295.226 127.550,295.203 127.569,295.310 127.850 C 295.437 128.183,320.200 128.438,320.200 128.106 C 320.200 127.896,319.214 125.800,319.116 125.800 C 319.058 125.800,319.096 126.026,319.201 126.301 M341.500 127.507 C 341.170 127.659,340.111 128.069,339.146 128.420 C 338.181 128.771,337.428 129.095,337.474 129.140 C 337.568 129.235,341.245 127.890,342.000 127.484 C 342.651 127.135,342.275 127.152,341.500 127.507 M333.842 130.348 C 332.491 130.845,331.418 131.284,331.458 131.325 C 331.547 131.414,335.822 129.923,336.337 129.623 C 336.997 129.240,336.330 129.433,333.842 130.348 M329.452 131.948 C 328.656 132.236,328.044 132.511,328.092 132.559 C 328.186 132.652,331.200 131.599,331.200 131.473 C 331.200 131.342,330.923 131.418,329.452 131.948 M324.200 133.700 C 323.485 133.958,322.995 134.176,323.111 134.184 C 323.379 134.204,325.800 133.391,325.800 133.282 C 325.800 133.147,325.560 133.210,324.200 133.700 M319.400 135.300 C 318.355 135.668,317.596 135.976,317.712 135.984 C 317.960 136.003,321.413 134.853,321.565 134.702 C 321.762 134.505,321.284 134.637,319.400 135.300 M314.400 136.803 C 313.795 137.007,312.850 137.311,312.300 137.479 C 311.627 137.685,311.529 137.747,312.000 137.670 C 312.865 137.528,316.214 136.440,315.800 136.435 C 315.635 136.433,315.005 136.599,314.400 136.803 M308.500 138.504 C 308.390 138.544,307.553 138.773,306.641 139.012 C 305.729 139.252,305.018 139.484,305.061 139.528 C 305.142 139.609,309.035 138.619,309.183 138.479 C 309.284 138.384,308.781 138.402,308.500 138.504 M299.700 140.805 C 298.600 141.116,297.835 141.376,298.000 141.383 C 298.165 141.390,299.245 141.134,300.400 140.814 C 301.555 140.493,302.320 140.233,302.100 140.235 C 301.880 140.237,300.800 140.494,299.700 140.805 M293.200 142.404 C 291.935 142.713,291.050 142.974,291.232 142.983 C 291.608 143.002,295.840 142.027,295.977 141.889 C 296.144 141.722,295.503 141.841,293.200 142.404 M284.100 144.320 C 282.877 144.606,282.488 144.745,283.100 144.679 C 284.288 144.551,287.321 143.824,286.600 143.841 C 286.325 143.847,285.200 144.063,284.100 144.320 M275.800 145.859 C 275.195 145.975,274.835 146.102,275.000 146.140 C 275.165 146.178,275.885 146.081,276.600 145.925 C 278.099 145.597,277.444 145.543,275.800 145.859 M272.650 146.538 C 272.843 146.588,273.157 146.588,273.350 146.538 C 273.543 146.488,273.385 146.446,273.000 146.446 C 272.615 146.446,272.457 146.488,272.650 146.538 M264.651 147.658 C 263.083 147.883,261.843 148.109,261.893 148.160 C 261.995 148.262,265.098 147.877,267.300 147.490 C 269.530 147.097,267.772 147.209,264.651 147.658 M260.650 148.338 C 260.843 148.388,261.157 148.388,261.350 148.338 C 261.543 148.288,261.385 148.246,261.000 148.246 C 260.615 148.246,260.457 148.288,260.650 148.338 M259.250 148.538 C 259.443 148.588,259.757 148.588,259.950 148.538 C 260.143 148.488,259.985 148.446,259.600 148.446 C 259.215 148.446,259.058 148.488,259.250 148.538 M257.450 148.738 C 257.643 148.788,257.957 148.788,258.150 148.738 C 258.343 148.688,258.185 148.646,257.800 148.646 C 257.415 148.646,257.257 148.688,257.450 148.738 M253.400 149.124 C 249.326 149.623,248.489 149.749,249.069 149.775 C 249.659 149.801,256.547 149.037,256.900 148.906 C 257.327 148.747,255.595 148.856,253.400 149.124 M245.400 150.004 C 244.892 150.083,245.328 150.103,246.400 150.048 C 247.445 149.995,248.338 149.918,248.383 149.876 C 248.514 149.757,246.399 149.847,245.400 150.004 M242.653 150.344 C 242.957 150.389,243.407 150.388,243.653 150.341 C 243.899 150.293,243.650 150.256,243.100 150.257 C 242.550 150.259,242.349 150.298,242.653 150.344 M240.253 150.544 C 240.557 150.589,241.007 150.588,241.253 150.541 C 241.499 150.493,241.250 150.456,240.700 150.457 C 240.150 150.459,239.949 150.498,240.253 150.544 M237.650 150.743 C 237.953 150.789,238.447 150.789,238.750 150.743 C 239.053 150.697,238.805 150.660,238.200 150.660 C 237.595 150.660,237.347 150.697,237.650 150.743 M230.400 151.111 C 228.365 151.247,225.935 151.381,225.000 151.407 C 224.065 151.433,223.525 151.498,223.800 151.550 C 224.301 151.646,231.921 151.286,235.300 151.007 L 237.100 150.859 235.600 150.860 C 234.775 150.861,232.435 150.974,230.400 151.111 M219.041 151.748 C 219.779 151.786,221.039 151.787,221.841 151.749 C 222.644 151.711,222.040 151.679,220.500 151.679 C 218.960 151.679,218.304 151.710,219.041 151.748 M203.656 151.947 C 204.182 151.989,204.992 151.988,205.456 151.946 C 205.920 151.904,205.490 151.870,204.500 151.871 C 203.510 151.872,203.130 151.906,203.656 151.947 M209.150 151.949 C 210.607 151.984,212.993 151.984,214.450 151.949 C 215.907 151.915,214.715 151.887,211.800 151.887 C 208.885 151.887,207.693 151.915,209.150 151.949 " stroke="none" fill="none" fill-rule="evenodd"></path><path id="path4" d="M194.050 46.149 C 195.123 46.185,196.878 46.185,197.950 46.149 C 199.023 46.113,198.145 46.084,196.000 46.084 C 193.855 46.084,192.978 46.113,194.050 46.149 M187.350 46.349 C 188.148 46.386,189.453 46.386,190.250 46.349 C 191.048 46.311,190.395 46.279,188.800 46.279 C 187.205 46.279,186.553 46.311,187.350 46.349 M179.800 46.542 C 175.055 46.779,163.635 47.575,163.200 47.699 C 162.780 47.819,166.133 47.646,171.200 47.285 C 173.565 47.117,177.795 46.860,180.600 46.716 C 183.576 46.562,184.742 46.458,183.400 46.465 C 182.135 46.472,180.515 46.506,179.800 46.542 M161.350 47.941 C 161.597 47.989,162.003 47.989,162.250 47.941 C 162.498 47.893,162.295 47.854,161.800 47.854 C 161.305 47.854,161.103 47.893,161.350 47.941 M155.700 48.310 C 149.747 48.918,144.922 49.492,145.234 49.556 C 145.418 49.593,147.218 49.441,149.234 49.218 C 151.251 48.995,154.340 48.675,156.100 48.508 C 157.860 48.341,159.615 48.173,160.000 48.134 C 160.385 48.096,160.160 48.060,159.500 48.054 C 158.840 48.049,157.130 48.164,155.700 48.310 M142.500 49.800 C 141.534 49.933,141.527 49.938,142.300 49.957 C 142.740 49.968,143.460 49.902,143.900 49.811 C 144.921 49.600,144.010 49.593,142.500 49.800 M136.100 50.568 C 134.120 50.857,132.680 51.116,132.900 51.143 C 133.120 51.170,135.145 50.933,137.400 50.616 C 139.655 50.298,141.095 50.039,140.600 50.040 C 140.105 50.040,138.080 50.278,136.100 50.568 M130.050 51.538 C 130.243 51.588,130.558 51.588,130.750 51.538 C 130.942 51.488,130.785 51.446,130.400 51.446 C 130.015 51.446,129.858 51.488,130.050 51.538 M124.000 52.369 C 122.295 52.655,121.080 52.911,121.300 52.939 C 121.520 52.967,123.185 52.733,125.000 52.418 C 126.815 52.104,128.030 51.848,127.700 51.848 C 127.370 51.849,125.705 52.083,124.000 52.369 M113.900 54.117 C 111.618 54.603,112.566 54.588,115.200 54.096 C 117.453 53.676,117.559 53.646,116.800 53.648 C 116.415 53.648,115.110 53.860,113.900 54.117 M104.643 55.845 C 103.622 56.070,102.827 56.294,102.876 56.343 C 102.969 56.436,107.237 55.618,107.383 55.479 C 107.568 55.303,106.398 55.459,104.643 55.845 M96.900 57.466 C 95.360 57.811,94.235 58.117,94.400 58.145 C 94.565 58.173,96.050 57.889,97.700 57.514 C 99.350 57.139,100.475 56.833,100.200 56.835 C 99.925 56.837,98.440 57.121,96.900 57.466 M89.200 59.246 C 88.265 59.474,87.590 59.690,87.700 59.726 C 87.810 59.762,88.755 59.577,89.800 59.315 C 90.845 59.052,91.520 58.836,91.300 58.834 C 91.080 58.832,90.135 59.017,89.200 59.246 M82.605 60.922 C 80.912 61.423,80.167 61.762,81.300 61.517 C 82.289 61.303,84.923 60.433,84.600 60.427 C 84.435 60.424,83.537 60.647,82.605 60.922 M76.345 62.746 C 75.049 63.137,74.026 63.493,74.070 63.537 C 74.154 63.621,79.034 62.233,79.183 62.083 C 79.379 61.888,78.555 62.080,76.345 62.746 M70.829 64.427 C 69.800 64.756,68.999 65.065,69.048 65.115 C 69.097 65.164,70.074 64.897,71.219 64.521 C 72.363 64.145,73.165 63.835,73.000 63.833 C 72.835 63.831,71.858 64.098,70.829 64.427 M65.020 66.400 C 64.097 66.726,63.287 67.053,63.220 67.128 C 63.154 67.203,63.235 67.218,63.400 67.161 C 63.565 67.105,64.442 66.813,65.350 66.513 C 66.258 66.213,67.000 65.930,67.000 65.884 C 67.000 65.729,66.707 65.805,65.020 66.400 M60.100 68.119 C 51.051 71.529,44.665 74.131,44.862 74.329 C 44.894 74.360,46.310 73.796,48.010 73.076 C 51.498 71.596,54.823 70.301,61.600 67.780 C 62.425 67.473,62.965 67.221,62.800 67.218 C 62.635 67.216,61.420 67.621,60.100 68.119 M42.781 75.092 C 40.523 76.080,33.800 79.356,33.800 79.468 C 33.800 79.521,35.938 78.554,38.550 77.319 C 41.163 76.084,43.615 74.927,44.000 74.749 C 45.314 74.142,44.304 74.426,42.781 75.092 M31.811 80.504 C 31.102 80.886,30.427 81.301,30.311 81.426 C 30.092 81.663,32.756 80.266,33.090 79.969 C 33.428 79.669,33.126 79.795,31.811 80.504 M28.850 82.206 C 28.273 82.537,27.800 82.860,27.800 82.923 C 27.800 83.043,29.559 82.075,29.890 81.773 C 30.230 81.463,29.920 81.592,28.850 82.206 M26.200 83.822 C 25.009 84.571,24.046 85.308,24.800 84.894 C 25.557 84.477,27.600 83.156,27.600 83.082 C 27.600 82.946,27.548 82.973,26.200 83.822 M22.788 86.022 C 18.626 88.889,14.143 92.505,11.019 95.516 L 9.100 97.366 9.700 98.003 C 11.187 99.584,14.695 102.501,19.150 105.860 C 19.288 105.964,19.400 106.000,19.400 105.940 C 19.400 105.881,18.388 105.071,17.150 104.140 C 14.879 102.433,12.420 100.344,10.401 98.407 L 9.302 97.353 11.061 95.676 C 14.114 92.763,19.908 88.119,23.250 85.905 C 24.273 85.227,24.546 85.000,24.336 85.000 C 24.300 85.000,23.604 85.460,22.788 86.022 M19.682 106.172 C 19.755 106.288,20.823 107.045,22.057 107.854 C 24.561 109.495,25.002 109.762,24.700 109.455 C 24.342 109.091,19.548 105.953,19.682 106.172 M25.350 109.926 C 25.875 110.363,27.800 111.466,27.800 111.331 C 27.800 111.280,27.373 110.990,26.850 110.686 C 26.328 110.382,25.675 110.003,25.400 109.843 L 24.900 109.553 25.350 109.926 M28.400 111.674 C 28.400 111.805,30.446 113.003,32.900 114.310 C 35.323 115.600,34.928 115.232,32.357 113.805 C 31.225 113.177,29.873 112.416,29.350 112.114 C 28.828 111.813,28.400 111.615,28.400 111.674 M34.800 115.300 C 34.800 115.432,40.424 118.243,40.512 118.154 C 40.551 118.116,39.281 117.436,37.691 116.643 C 36.101 115.850,34.800 115.246,34.800 115.300 M42.800 119.300 C 43.735 119.784,44.590 120.180,44.700 120.180 C 44.810 120.180,44.135 119.784,43.200 119.300 C 42.265 118.816,41.410 118.420,41.300 118.420 C 41.190 118.420,41.865 118.816,42.800 119.300 M46.778 121.122 C 47.811 121.611,48.690 121.977,48.731 121.936 C 48.817 121.849,45.258 120.191,45.041 120.216 C 44.964 120.226,45.745 120.633,46.778 121.122 M49.600 122.366 C 50.395 122.808,53.800 124.231,57.200 125.541 C 63.147 127.834,66.864 129.202,66.939 129.127 C 66.985 129.082,66.634 128.907,66.161 128.739 C 65.687 128.571,63.860 127.882,62.100 127.207 C 60.340 126.532,58.045 125.658,57.000 125.264 C 55.955 124.869,53.840 124.011,52.300 123.356 C 49.105 121.997,48.613 121.817,49.600 122.366 M67.221 129.288 C 67.354 129.421,71.871 130.997,72.100 130.990 C 72.420 130.981,71.150 130.470,69.167 129.810 C 67.320 129.196,67.060 129.126,67.221 129.288 M73.017 131.279 C 73.167 131.422,76.627 132.600,76.866 132.590 C 76.995 132.585,76.245 132.270,75.200 131.890 C 73.457 131.257,72.800 131.073,73.017 131.279 M78.423 133.081 C 78.585 133.255,86.990 135.930,87.840 136.079 C 88.724 136.235,88.039 135.998,83.100 134.439 C 78.435 132.966,78.270 132.919,78.423 133.081 M90.021 136.688 C 90.167 136.833,94.445 138.001,94.785 137.988 C 94.958 137.981,94.020 137.667,92.700 137.290 C 90.369 136.625,89.839 136.505,90.021 136.688 M95.500 138.200 C 95.720 138.295,96.035 138.372,96.200 138.372 C 96.389 138.372,96.352 138.308,96.100 138.200 C 95.880 138.105,95.565 138.028,95.400 138.028 C 95.211 138.028,95.248 138.092,95.500 138.200 M96.600 138.455 C 96.600 138.595,100.997 139.670,101.109 139.558 C 101.159 139.507,100.368 139.266,99.350 139.022 C 98.333 138.778,97.298 138.529,97.050 138.468 C 96.803 138.407,96.600 138.401,96.600 138.455 M103.800 140.311 C 104.921 140.690,107.431 141.236,107.542 141.124 C 107.588 141.079,106.802 140.852,105.797 140.621 C 103.248 140.034,102.756 139.957,103.800 140.311 M110.500 141.919 C 111.879 142.310,116.033 143.201,116.400 143.184 C 116.565 143.176,115.170 142.817,113.300 142.386 C 109.890 141.599,108.630 141.389,110.500 141.919 M118.800 143.664 C 118.935 143.802,124.111 144.805,124.551 144.780 C 124.743 144.769,123.910 144.551,122.700 144.297 C 120.156 143.762,118.657 143.519,118.800 143.664 M127.000 145.251 C 127.146 145.408,133.195 146.435,133.457 146.348 C 133.578 146.307,132.558 146.080,131.189 145.843 C 127.774 145.252,126.883 145.126,127.000 145.251 M137.900 147.108 C 138.350 147.281,145.036 148.198,145.644 148.170 L 146.300 148.140 145.700 148.062 C 145.370 148.019,143.586 147.762,141.736 147.492 C 138.636 147.039,137.396 146.915,137.900 147.108 M147.850 148.538 C 148.042 148.588,148.358 148.588,148.550 148.538 C 148.743 148.488,148.585 148.446,148.200 148.446 C 147.815 148.446,147.657 148.488,147.850 148.538 M149.450 148.738 C 149.643 148.788,149.958 148.788,150.150 148.738 C 150.343 148.688,150.185 148.646,149.800 148.646 C 149.415 148.646,149.258 148.688,149.450 148.738 M150.619 148.886 C 150.750 149.017,159.823 150.004,160.610 149.973 C 161.324 149.945,161.037 149.908,154.735 149.214 C 150.708 148.771,150.487 148.754,150.619 148.886 M161.954 150.145 C 162.313 150.189,162.853 150.189,163.154 150.143 C 163.454 150.097,163.160 150.061,162.500 150.062 C 161.840 150.063,161.594 150.100,161.954 150.145 M164.554 150.345 C 164.913 150.389,165.453 150.389,165.754 150.343 C 166.054 150.297,165.760 150.261,165.100 150.262 C 164.440 150.263,164.194 150.300,164.554 150.345 M167.050 150.543 C 167.353 150.589,167.847 150.589,168.150 150.543 C 168.453 150.497,168.205 150.460,167.600 150.460 C 166.995 150.460,166.748 150.497,167.050 150.543 M168.900 150.709 C 169.325 150.874,182.643 151.614,186.568 151.691 L 190.700 151.772 186.900 151.600 C 184.810 151.505,180.074 151.242,176.376 151.014 C 169.760 150.607,168.503 150.555,168.900 150.709 M192.840 151.949 C 193.797 151.985,195.417 151.986,196.440 151.949 C 197.463 151.913,196.680 151.883,194.700 151.883 C 192.720 151.882,191.883 151.912,192.840 151.949 " stroke="none" fill="#f39a9c" fill-rule="evenodd"></path></g></svg>