<?xml version="1.0" encoding="utf-8"?>
<!-- Generator: Adobe Illustrator 13.0.0, SVG Export Plug-In . SVG Version: 6.00 Build 14948)  -->
<!DOCTYPE svg PUBLIC "-//W3C//DTD SVG 1.1//EN" "http://www.w3.org/Graphics/SVG/1.1/DTD/svg11.dtd">
<svg version="1.1" id="Layer_1" xmlns="http://www.w3.org/2000/svg" xmlns:xlink="http://www.w3.org/1999/xlink" x="0px" y="0px"
	 width="700px" height="682px" viewBox="0 0 700 682" enable-background="new 0 0 700 682" xml:space="preserve">
<g>
	<polygon display="none" fill="#4D8F9E" points="0,0 700,0 700,682 0,682 0,0 	"/>
	<path fill="#FFFFFF" d="M687.021,149.39c-1.871-11.52,1.99-22.87,1.43-34.39c0.17-7.99,0.309-17.45-5.881-23.43
		c-3.439-1.79-7.67-0.8-11.4-0.66c-7.059,1.29-14.309,2.21-20.898,5.2c-6.281,2.83-13.031,5.02-18.24,9.7
		c-10.951,8.63-21.121,18.31-29.83,29.2c-2.98,3.72-4.75,8.18-6.32,12.62c-1.541,4.38-3.6,8.56-4.961,13
		c-2.59,10.59-4.639,21.41-4.479,32.37c-0.4,8.04,0.25,16.21,2.969,23.84c1.531,4.37,2.871,9.2,1.531,13.8
		c-2.461,8.14-5.74,16-9.5,23.63c-3,5.99-4.352,12.56-6.131,18.97c-1.971-5.42-2.92-11.16-4.65-16.66
		c-4.9-16.18,0.441-33.68-5.369-49.68c-3.381-8.64-6.141-18.638-11.621-26.36c-3.459-4.874-6.1-8.74-10.359-12.64
		c-3.82-3.51-7.24-7.43-11.189-10.79c-1.77-1.56-4.051-2.58-5.5-4.46c-4.551-14.93-9.17-29.85-14.42-44.56
		c-1.939-5.69-5.17-10.79-7.85-16.14c-4.852-8.2-10.371-17.05-18.182-22.87c-3.68-2.4-8.52-1.93-12.529-0.69
		c-5.1,1.84-11.1,4.24-15.209,7.83c-9.191,7.34-17.391,14.68-26,22.69c-7.48-3.69-14.881-7.67-22.861-10.19
		c-9.379-3.04-18.51-6.979-28.27-8.689c-14.029-3.851-28.689-5.37-43.149-5.42c-8.05-0.01-15.85-2.76-23.92-2.43
		c-9.09,0.34-18.58-0.18-27.04,3.76c-9.18,2.97-15.69,10.42-23.76,15.31c-6.41,4.14-13.93,7.28-20.09,11.86
		c-3.64,2.81-7.6,5.14-11.57,7.44c-7.62,5.24-15.2,10.67-21.58,17.43c-9.4,8.6-17.82,18.2-26.42,27.59
		c-2.98,3.35-4.96,7.41-7.36,11.17c-7.68-1.45-15.51-1.51-23.22-2.72c-11.43-1.03-23.52-4.41-34.56,0.47
		c-6.12,1.97-11.19,7.2-12.15,13.66c-0.9,8.38-0.21,16.83,0.63,25.18c1.94,8.62,3.75,17.36,7.15,25.55
		c1.67,4.17,2.94,8.48,4.29,12.76c2.36,8.22,7.79,14.99,11.28,22.71c5.16,7.57,9.02,15.89,12.64,24.28
		c0.88,2.25-0.06,4.66-0.26,6.95c-9.8-4.14-20.24-7.96-31.06-7.25c-5.02,0.1-10,0.85-15,1.23c-5.52,0.57-10.37-3.15-15.88-2.91
		c-6.22,0.16-12.53,0.35-18.6,1.83c-14.43,5.56-26.45,16.13-35.53,28.48c-2.95,4.85-5.15,10.12-7.69,15.2
		c-6.84,14.89-6.29,31.83-4.06,47.7c1.44,6.779,3.96,13.26,6.17,19.8c3.03,7.97,8.72,14.49,13.75,21.25
		c5.7,7.42,14.42,11.34,22.55,15.439c5.3,2.69,11.95,2.32,16.53,6.45c8.44,7.95,15.17,17.47,23.28,25.74
		c2.86,2.85,5.28,6.11,7.48,9.49c3.22,4.899,7.27,9.16,10.75,13.859c-2.36,5.88-4.59,11.82-6.04,18.011
		c-3.56,12.369-3.86,25.35-4.12,38.13c0.78,7.93,3.85,15.399,6.56,22.83c4.53,12.149,12.24,22.739,20.36,32.699
		c4.55,4.641,10.44,7.62,15.75,11.261c6.59,4.46,14.56,5.71,22.06,7.87c7.38,2.119,15.1,2.54,22.7,3.38
		c9.69,0.989,18.93-2.58,28.07-5.2c7.34,8.95,14.12,18.689,23.83,25.29c8.98,8.83,21.55,13.46,34.06,13.52
		c8.79-0.699,17.53-2.67,25.63-6.189c5.43-3.34,11.52-6.471,14.79-12.21c3.04-5.011,4.7-10.7,6.76-16.141
		c2.5-11.68,0.78-24.38-5.64-34.58c-7.42-11.34-16.85-21.18-25.6-31.46c-1.33-1.21-0.51-2.92-0.05-4.31
		c5.35-13.65,7.22-28.64,5.38-43.18c-1.96-10.79-3.95-21.83-9.21-31.58c-2.9-6.011-6.93-11.351-10.22-17.12
		c11.04,1.83,21.93,5.38,33.25,4.82c14.68,0.3,29.35-0.261,44.029-0.061c8.08-0.12,16.08-1.39,24.041-2.64
		c17.049-1.84,33.1-8.181,49.629-12.36c11.012-2.85,21.691-6.78,32.42-10.53c7.74-2.779,14.83-6.989,21.951-11.04
		c8.65-4.67,17.25-9.449,26.4-13.08c-4.361,5.86-8.561,11.921-10.48,19.08c-5.301,11.23-4.48,23.851-4.93,35.92
		c-0.611,8.431,3.809,15.931,6.189,23.74c2.609,8.271,7.541,15.521,12.391,22.61c5.879,6.43,11.559,13.25,18.91,18.1
		c6.41,4.681,14.568,5.36,21.809,8.17c10.441,3.721,21.42,6.61,32.611,5.61c9.35,0.46,18.17-2.92,27.049-5.28
		c7.9-3.02,15.9-6.88,21.441-13.479c3.42-3.92,7.459-7.23,10.879-11.141c4.49-5.21,6.859-11.76,10.49-17.529
		c2.439-3.801,3.881-8.11,5.74-12.19c2.869-6.13,2.73-13.02,3.9-19.55c3.66-19.11-0.5-39.38-10.641-55.91
		c-2.801-4.42-6.689-7.97-10.211-11.8c-2.389-2.64-5.568-4.59-7.51-7.61c1.211-6.62,3.26-13.1,4.061-19.81
		c0.98-9.021,3.24-17.851,3.711-26.931c1.639-9.479,1.68-19.26,4.67-28.47c2.029-6.96,2.27-14.25,2.99-21.42
		c0.979-13.38,2.93-26.71,2.809-40.16c-0.311-4.54,4.82-6.32,7.35-9.27c4.941-5.61,8.541-12.26,12.371-18.65
		c3.27-5.88,6.98-11.66,8.75-18.23c2.289-9.13,5.141-18.27,4.85-27.79C691.57,173.67,688.92,161.52,687.021,149.39z M190.531,432.9
		c-7.6-9.221-14.95-18.631-21.87-28.37c-0.48-0.96-1.62-2-1.04-3.141c1.9-4.67,3.26-9.52,5.01-14.239
		c3.95,5.76,8.78,11.08,15.01,14.399c7.03,3.34,11.18,10.22,16.19,15.84c3.6,4.28,7.47,8.33,11.43,12.29
		C206.921,429.81,198.731,431.49,190.531,432.9z"/>
	<path d="M469.23,86.99c2.26-1.78,5.34-2.67,8.109-1.57c2.59,1.17,3.35,4.1,4.609,6.4c4.32,8.21,7.32,17.05,11.75,25.22
		c6.08,14.87,8.66,30.82,12.941,46.23c0.33,2.06,2.389,2.89,3.898,3.97c5.01,3.16,9.49,7.12,13.371,11.59
		c11.91,11.37,20.59,26.46,22.959,42.87c2.51,10.37-0.689,21.02,0.84,31.43c2.701,7.14,3.471,14.77,5.602,22.07
		c1.84,11.43,4.898,22.83,4.129,34.51c-0.5,7.4-0.811,14.9-2.6,22.13c-4.609,12.69-9.971,25.47-19.141,35.601
		c-9.719,11.819-22.68,20.22-34.949,29.109c-3.1,2.391-6.77,3.851-10.051,5.95c-6.529,4.17-12.859,8.87-20.18,11.58
		c-9.379,3.68-18.48,8.08-28.061,11.24c-9.068,2.729-18.059,5.71-26.92,9.04c-15.18,4.26-30.549,8.72-46.439,9.06
		c-8,1.021-15.939,2.72-24.02,3.04c-19.23,0.37-38.75,1.09-57.62-3.34c-7.34-2.29-14.6-4.811-22.01-6.86
		c-13.37-5.66-26.13-13.189-36.48-23.47c-6.86-5.78-13.32-12.03-19.38-18.63c-3.1-3.16-4.46-7.45-6.53-11.26
		c-2.51,0.54-5.18,1.8-7.65,0.399c-3.05-1.38-6.72-2.31-8.59-5.34c-6.27-9.29-11.02-19.45-15.33-29.76
		c-3.32-6.62-6.48-13.36-8.32-20.56c-2.65-11.06-5.57-22.29-4.86-33.76c0.42-3.07,1.38-6.06,1.57-9.17
		c-3.4-8.17-11.07-15.14-14.57-23.26c-7.5-16.33-14.58-32.88-19.96-50.04c-2.38-8.08-4.55-16.14-4.76-24.65
		c0.9-3.2,1.87-7.43,5.09-9.32c3.41-1.13,7.09-0.22,10.55,0.27c8.05,1.75,16.3,2.2,24.38,3.72c7.63,1.36,14.83,4.37,22.36,6.15
		c2.84-4.48,4.88-9.46,8.25-13.6c4.83-6.77,10.13-13.19,15.28-19.72c4.53-5.85,10.16-9.479,15.37-14.64
		c2.75-2.59,5.87-5.81,8.96-8.04c5.43-3.88,10.11-8.87,16.26-11.69c4.93-2.22,9.12-5.76,14.09-7.89c7.05-2.81,12.38-8.41,18.7-12.42
		c5.59-5.14,12.67-8.57,20.09-10.1c4.99-0.3,10.067-0.661,15.02,0.03c6.51,0.907,10.74,2.87,16.15,4.13
		c3.94-0.31,7.806-1.202,11.86-1.18c7.5,0.04,13.799,0.39,20.549,1.92c8.172,1.25,15.961,4.15,23.98,6.04
		c8.041,1.69,15.805,5.08,23.138,8.914c4.607,2.409,9.163,4.367,13.503,7.276c3.17,2.04,5.971,4.61,9.25,6.51
		c3.189-4.42,7.471-7.86,10.82-12.14c2.93-3.73,6.959-6.37,9.959-10.04C458.609,95.68,463.789,91.15,469.23,86.99L469.23,86.99z"/>
	<path fill="#F59C32" d="M467.109,109.1c1.811-2.35,4.031-4.33,6.301-6.22c1.92,3.75,3.859,7.53,5.039,11.6
		c1.781,6.74,4.191,13.29,6.041,20.01c3.061,8.51,4.74,17.41,6.67,26.22c-4.189-0.92-8.531-1.04-12.641-2.21
		c-4.48-3.86-8.43-8.29-12.219-12.8c-5.48-5.22-11.182-10.28-17.75-14.1C454.359,123.79,461.129,116.77,467.109,109.1L467.109,109.1
		z"/>
	<path fill="#FFCF38" d="M294.79,109.89c4.64-2.53,10-3.27,15.17-3.95c3.83-0.53,7.54,0.93,11.32,1.37
		c9.75,1.11,19.2,4.67,27.43,9.97c9.091,6.95,19.14,12.63,27.54,20.46c6.939,6.62,14.1,13.06,20.221,20.479
		c-8.73,0.09-17.23,2.12-25.762,3.69c-4.5,0.9-8.92,2.58-13.549,2.56c-4.451-5.13-8.99-10.17-12.87-15.75
		c-8.91-8.49-17.73-17.37-28.54-23.49c-5.76-3.23-12.27-4.88-18.8-5.58c-1.91-0.28-3.5,0.67-4.76,2c7.16,3.03,14.81,5.25,21,10.16
		c6.36,5.26,12.83,10.61,17.59,17.44c4.71,6.6,10.21,12.62,14.39,19.59c-20.7,9.36-38.05,24.43-54.31,40.02
		c-7.52,6.87-14.37,14.58-19.72,23.28c-4.02,5.7-8.13,11.38-11.32,17.61c-3.26,6.68-7.82,12.68-10.51,19.66
		c-2.56,6.59-7.36,11.9-11.19,17.76c-2.23,3.65-5.61,6.35-8.43,9.52c-7.99,8.81-15.99,17.84-21.51,28.46
		c-6.3,10.72-10.82,22.38-14.23,34.331c-4.1-11.011-9.49-21.46-14.07-32.261c-2.82-7.78-3.12-16.16-3.67-24.33
		c3.63,2.09,7.01,4.71,10.95,6.19c4.01,0.81,8.71,0.97,11.9-2.04c4.96-4.26,7.42-10.57,11.24-15.76c5-6.56,8.75-13.93,13.06-20.93
		c4.93-8.03,10.1-15.9,15.09-23.89c5.81-7.51,12.68-14.29,17.41-22.58c-0.09-0.33-0.28-0.98-0.38-1.31
		c-4.17-3.39-9.14-5.63-13.75-8.35c-7.6-4.45-15.27-8.8-23-13.02c-5.86-2.69-11.96-4.84-18.08-6.83c2.57-4.34,5.14-8.68,7.62-13.08
		c11.94-19.01,29.15-34.35,48.53-45.51c7.16-4.58,14.38-9.061,21.8-13.21C284.1,118.49,289.14,113.78,294.79,109.89L294.79,109.89z"
		/>
	<path fill="#FFCF38" d="M357.83,108.32c8.42-0.46,16.27,3.02,24.02,5.79c10.23,3.3,20.33,7.16,29.84,12.2
		c9.031,5.66,18.41,10.77,27.291,16.66c4.869,4.12,10.639,7.04,15.199,11.54c-14.391,0.81-28.85,0.45-43.189,1.95
		c-3.961-5.16-8.791-9.5-13.4-14.04c-6.82-7.85-14.369-15.11-22.74-21.28C369.67,116.22,363.24,112.94,357.83,108.32L357.83,108.32z
		"/>
	<path d="M653.629,111.53c4.42-2.22,9.41-2.311,14.24-2.2c0.68,1.22,2.051,2.24,1.98,3.75c-0.35,7-1.48,13.95-2.24,20.91
		c0.441,14.4,4.111,28.53,4.17,42.97c0.23,12.12,0.25,25.93-8.34,35.51c-2.369,2.52-2.459,6.13-3.799,9.16
		c-3.23,6.53-8.031,12.09-11.57,18.44c-2.041,3.79-5.951,6-8.381,9.48c-0.57,6.1,0.08,12.27-0.57,18.38
		c-1.08,7.29-0.76,14.71-2.07,21.98c-0.998,9.19-2.748,18.35-2.389,27.62c-1.73,1.02-3.51,1.96-5.32,2.82
		c-1.311,9.84-1.619,19.79-2.59,29.669c-2.74,18.28-6.82,36.311-10.529,54.4c7.439,3.49,14.189,8.71,18.85,15.54
		c1.459,2.16,3.18,4.12,4.74,6.21c2.91,3.91,4.02,8.74,5.67,13.24c4.01,12.18,3.539,25.28,1.5,37.78
		c-1.811,7.97-5.891,15.149-9.221,22.54c-4.131,7.529-10.189,14.09-17.689,18.35c-7.85,4.55-15.66,9.9-24.871,11.12
		c-6.51,2.37-13.49,0.979-20.229,1.03c-9.262-1.171-18.531-3.211-27.041-7.12c-4-2.41-8.76-3.54-12.23-6.771
		c-3.84-3.5-8.059-6.72-10.789-11.22c-4.4-7.521-7.77-15.74-9.17-24.37c-1.451-9.61-1.541-19.45-0.311-29.08
		c2.439-13.15,7.68-26.32,17.621-35.63c6.449-6.24,12.539-13.62,21.158-16.88c6.131-1.65,12.301-3.22,18.531-4.48
		c-0.43-9.96,0.289-19.83,0.65-29.76c0.379-8.58,2.029-17.02,3.729-25.41c1.17-9.86,5.211-20.33,7.42-29.97
		c1-2.87-0.609-4.69-0.439-7.59c0.631-8.03,3.66-15.57,5.811-23.26c4.32-15.34,9.959-30.42,18.1-44.19
		c-4.289-10.97-4.34-22.92-5.131-34.5c0.15-3.79,0.922-7.74-1.029-11.24c-1.52-7.36,0.791-14.82,3.109-21.78
		c1.57-4.34,3.201-8.67,5.211-12.82c1.84-3.92,5.039-6.93,7.82-10.18c5.67-7.57,12.09-14.55,18.869-21.13
		C641.709,118.09,647.629,114.62,653.629,111.53L653.629,111.53z"/>
	<path fill="#F31E3E" d="M626.119,156.15c8.281-11.24,18.021-21.32,28.791-30.21c-0.611,7.64-1.74,15.31-0.531,22.95
		c1.391,8.89,1.25,17.89,2.201,26.82c0.811,7.43,0.799,15.05-1.4,22.26c-4.33-3.38-9.369-5.96-12.869-10.29
		c-2.471-2.9-5.9-6.06-10.021-5.34c-5.67,1.33-10.59,4.71-16.219,6.18c-0.6-4.59,0.1-9.27,1.9-13.53
		C620.619,168.69,622.16,161.84,626.119,156.15L626.119,156.15z"/>
	<path fill="#FFCF38" d="M444.859,171.42c11.361-1.07,22.641,1.28,33.961,1.85c5.57,0.24,10.513,1.897,16.09,3.79
		c9.108,3.092,16.93,8.84,22.889,16.11c8.33,11.99,15.4,25.62,15.91,40.51c-3.809-2.7-7.58-5.56-11.939-7.33
		c-4.66-1.96-8.92-4.81-13.75-6.37c-12.279-3.85-25.17-5.15-37.98-5.58c-8.76-0.15-17.59-1.35-26.299,0.08
		c-6.6,1.06-13.34,0.33-19.891,1.68c-8.359,0.67-16.539,2.57-24.859,3.54c-17.25,3.46-33.91,9.2-51,13.29
		c-17.14,4.36-33.03,12.35-49.57,18.36c-7.14,3.64-14.82,6.21-21.6,10.52c-2.6,1.62-5.49,2.67-8.33,3.78
		c4.45-7.56,8.65-15.28,13.81-22.4c7.72-12,18.62-21.34,28.26-31.71c3.83-4.21,8.3-7.8,13.01-10.99
		c9.17-5.72,18.51-11.31,28.581-15.32c8.859-3.58,18.4-4.75,27.719-6.55c12.031-1.79,23.932-4.59,36.121-5.11
		C425.59,172.5,435.24,172.21,444.859,171.42L444.859,171.42z"/>
	<path fill="#F59C32" d="M137.55,196.66c5.87-1.78,10.85,2.61,16.57,2.92c8.23,0.87,15.99,4,24.16,5.18
		c13.89,2.02,25.57,10.29,38.08,16c6.5,2.53,12.64,5.98,19.41,7.79c-5.98,7.16-11.579,14.619-17.03,22.2
		c-3.865,5.375-7.132,11.428-10.37,17.47c-2.495,4.655-4.4,8.86-7.26,12.9c-3.68,4.95-6.65,10.37-10.16,15.44
		c-5.6-4.34-9.34-10.37-13.65-15.85c-12.18-12.91-16.82-30.49-25.23-45.73c-5.27-8.99-6.66-19.56-11.12-28.91
		C139.5,203.05,138.6,199.82,137.55,196.66L137.55,196.66z"/>
	<path fill="#673927" d="M616.971,201.61c5.229-0.72,10.139-2.69,14.898-4.9c5.08,5.02,11.211,8.73,16.58,13.39
		c-4.35,10.2-9.359,20.39-16.639,28.85c-2.951-0.97-5.891-1.93-8.83-2.86C619.289,224.97,617.279,213.31,616.971,201.61
		L616.971,201.61z"/>
	<path fill="#F59C32" d="M386.73,237.1c17.33-3.87,34.939-6.51,52.58-8.53c9.229-0.08,18.469-1.76,27.689-0.55
		c12.301,0.89,24.811,1.46,36.641,5.27c6.148,2.52,12.199,5.47,17.379,9.67c4.24,3.38,8.791,6.83,11.131,11.89
		c4.119,9.02,5.109,19,7.75,28.47c2.549,8.8,4.02,17.02,4.01,26.13c-5.83-4.78-11.77-9.79-19.031-12.22
		c-4.738-1.83-9.879-2.01-14.879-2.48c-3.279-0.11-7.471,0.19-9.26,3.41c-0.82,2.24,1.219,4.28,3.279,4.73
		c5.371,1.5,10.971,2.14,16.291,3.85c6.27,2.11,11.109,6.78,16.109,10.89c2.58,2.11,4.51,4.87,6.52,7.5
		c-1.209,3.78-3.43,8.57-5.32,12.08c-6.729-5.5-12.91-11.75-21.26-14.51c-6.42-2.64-14.23-4.83-20.639-1.02
		c-3.061,1.71-2.531,6.75,0.898,7.65c3.951,0.74,8.102,0.6,11.891,2.13c6.721,2.7,13.221,6.19,17.641,12.34
		c1.059,1.71,3.049,3.79,1.799,5.9c-3.049,5.18-7.74,9.1-11.789,13.46c-5.291,5.52-12.01,9.29-17.84,14.17
		c-5.611,4.72-12.41,7.61-18.641,11.37c-4.66,2.52-9.16,5.399-14.119,7.3c4.898-6.64,9.75-13.62,11.699-21.77
		c2.189-9.061,3.73-18.921,0.391-27.91c-2.83-7.65-7.441-15.1-14.631-19.311c-6.209-3.67-12.549-7.38-19.57-9.27
		c-6.969-1.87-13.629-4.69-20.59-6.58c-2.609-0.84-5.59-1.34-7.449-3.54c-9.76-11.51-11.359-27.05-17.721-40.29
		C393.23,257.55,390.83,247.02,386.73,237.1L386.73,237.1z"/>
	<path fill="#FFFFFF" d="M368.67,242.47c5.811-2.45,11.891-4.12,18.061-5.37c4.1,9.92,6.5,20.45,10.959,30.23
		c6.361,13.24,7.961,28.78,17.721,40.29c1.859,2.2,4.84,2.7,7.449,3.54c6.961,1.89,13.621,4.71,20.59,6.58
		c7.021,1.89,13.361,5.6,19.57,9.27c7.189,4.21,11.801,11.66,14.631,19.311c3.34,8.989,1.799,18.85-0.391,27.91
		c-1.949,8.149-6.801,15.13-11.699,21.77c-3.5,3.26-8.15,4.92-12.291,7.21c-7.18,3.98-14.6,4.56-21.939,8.15
		c-6.74,2.409-14.439,5.229-21.6,6.13c-6.451,0.89-12.76,2.79-19.26,3.24c-6.521-1.511-13.131-3.521-18.41-7.811
		c-11.352-9.31-21.081-21.31-25.361-35.55c-1.45-7.34-1.36-14.91-1.49-22.36c1.24-9.6,7.069-18.39,15.13-23.68
		c5.17-3.37,10.529-6.49,16.279-8.76c3.83-1.9,8.281-3.41,10.932-6.94c-0.961-7.74-0.811-15.66-2.891-23.24
		c-1.1-4.4-1.52-8.94-2.891-13.27C377.699,266.8,374.789,254.01,368.67,242.47L368.67,242.47z"/>
	<path fill="#F59C32" d="M333.25,253.27c13.5-4.52,23.34-7.32,35.42-10.8c6.119,11.54,9.029,24.33,13.1,36.65
		c1.371,4.33,1.791,8.87,2.891,13.27c2.08,7.58,1.93,15.5,2.891,23.24c-2.65,3.53-7.102,5.04-10.932,6.94
		c-5.75,2.27-11.109,5.39-16.279,8.76c-8.061,5.29-13.89,14.08-15.13,23.68c0.13,7.45,0.04,15.021,1.49,22.36
		c4.28,14.24,14.009,26.24,25.361,35.55c5.279,4.29,11.889,6.3,18.41,7.811c-7.211,2.38-14.791,3.739-22.391,3.899
		c-18.61,1.41-38.58,6.12-56.58,2.87c-9.429-1.702-18.48-3.21-27.83-5.37c-1.45-0.34-2.8-1.12-3.74-2.28
		c-0.49-5.71,0.27-11.52,1.8-17.02c3.69-10.07,10.62-18.5,17.93-26.17c3.17-3.24,8.7-4.67,9.7-9.61c-0.7-2.62-3.64-3.41-6-2.85
		c-6.66,1.319-12.4,6.6-17.1,11.069c-6.67,6.301-12.19,13.83-15.9,22.24c-2.5,5.76-2.98,12.101-3.81,18.25
		c-6.48-2.649-11.11-6.87-17.09-10.45c3.28-13.76,9.33-27.26,19.81-37.04c3.59-4.449,8.18-7.909,12.17-11.949
		c2.45-2.98-1.39-6.66-4.47-6.59c-4.34,0.5-7.81,2.5-11,5.229c-6.45,6.29-13.05,12.64-17.47,20.59c-4.37,6.82-6.47,14.69-9.19,22.24
		c-7.72-5.58-14.36-11.51-19.78-19.34c-3.78-5.17-7.68-10.431-9.87-16.51c1.66-6.82,3.73-13.601,6.15-20.2
		c5.15-9.47,10.57-18.99,18.1-26.81c5.51-5.5,10.29-11.76,16.53-16.5c5.41-4.99,11.78-8.78,17.13-13.84
		c4.55-4.05,10.28-6.328,15.27-9.73c11.16-7.61,23.1-11.14,34.88-16.14C322.72,256.94,328.25,255.06,333.25,253.27L333.25,253.27z"
		/>
	<path fill="#FFCF38" d="M613.4,248.37c4.979,0.01,9.949,0.64,14.85,1.48c1.391,6.98-1.014,13.27-1.584,20.15
		c-0.65,4.88-0.906,10.2-1.836,15.04c-0.859,7.16-2.33,14.293-2.359,21.51c-2.852,0.13-5.805,0.95-8.602-0.47
		c-4.483-2.276-8.6-5.23-13.318-6.97c1.84-14.87,5.439-29.43,10-43.68C611.42,253.07,611.629,250.25,613.4,248.37L613.4,248.37z"/>
	<path d="M422.5,264.52c5.051-2.77,11.529-0.14,14.43,4.52c1.859,3.36,3.02,7.14,3.59,10.93c-0.07,4.85-1,9.88-3.359,14.18
		c-2.02,3.88-6.92,5.69-10.891,3.62c-5.219-2.74-10.709-7.37-10.98-13.73c-0.209-4.13-0.939-8.41,0.352-12.44
		C416.971,268.52,419.49,265.98,422.5,264.52L422.5,264.52z"/>
	<path d="M342.35,280.37c5.31-1.53,10.451,1.61,13.65,5.64c3.119,7.26,4.43,15.82,1.391,23.32c-3.811,6.02-13.741,8.69-19.331,3.63
		c-4.82-5.39-5.42-13.11-4.83-20C333.41,287.44,337.46,282.53,342.35,280.37L342.35,280.37z"/>
	<path d="M55.55,308.55c5.55-4.34,12.16-8.27,19.44-8.02c3.08,1.88,5.65,5.05,5.81,8.79c1,9.19,1.67,18.41,1.67,27.66
		c1.03,9.08,0.61,18.23,1.44,27.33c5.51,0.131,11.04,0.311,16.51-0.56c0.22-12.93-0.095-25.788-0.32-38.75
		c-0.099-5.667-1.79-13.58,1.21-19.64c7.57-2.37,15.77-0.66,22.89,2.39c10.96,6.28,18.91,16.84,23.8,28.33
		c1.99,6.29,4.77,12.34,6.16,18.82c1.15,6.3,3.41,12.68,1.77,19.119c-0.74,7.41-4.33,13.98-7.08,20.75
		c-1.16,2.561-2.96,4.74-4.61,6.98c5.12,8.42,10.23,16.9,16.41,24.61c7.46,8.18,13.63,17.399,20.81,25.819
		c5.21-1.399,10.48-2.55,15.68-3.989c6.88-1.341,13.94-0.811,20.91-0.9c6.55-0.15,12.28,3.42,18.36,5.28
		c9.31,3.85,17.78,10.06,24.16,17.87c5.59,7.75,11.12,15.79,14.04,25c0.85,2.77,2.34,5.329,2.86,8.21
		c1.23,9.409,3.69,18.85,2.39,28.409c-0.55,10.91-4.91,21.11-9.38,30.921c2.59,2.909,5.29,5.779,8.53,7.989
		c5.71,3.891,9.93,9.431,14.56,14.46c4.29,4.761,7.89,9.471,10.51,15.42c1.83,4.15,2.27,8.78,2.96,13.16
		c0.91,5.931-0.87,14.521-5.49,18.54c-3.37,2.99-6.081,5.717-10.48,7.601c-6.07,2.6-14.05,3.79-21.25,1.949
		c-5.05-1.71-10.1-3.55-14.73-6.229c-7.81-5.01-14.05-12.05-19.59-19.41c-2.24-3.1-4.69-6.11-6.31-9.61
		c-1.03-1.989-1.99-4.35-4.18-5.3c-7.03,1.21-13.85,3.83-21.05,3.91c-5.68-0.09-11.26,1.37-16.95,0.9
		c-6.47-0.591-13.1-0.69-19.27-2.96c-9.53-3.33-17.74-9.391-25.72-15.41c-5.35-5.5-9.93-11.86-13.18-18.83
		c-1.67-5.16-3.95-10.26-4.14-15.76c-0.44-8.83-2.06-17.61-1.45-26.48c0.57-12.96,4.97-25.38,10.82-36.85
		c-4.8-6.551-9.84-12.91-14.82-19.311c-7.44-11.029-17.13-20.26-25.28-30.75c-3.49-4.76-7.97-8.67-11.94-13.01
		c-3.17-3.15-8-1.9-11.87-3.3c-7.4-2.47-13.52-7.53-19.45-12.42c-8.68-7.73-13.63-18.54-18.1-29.03
		c-3.32-8.63-3.96-18.02-3.01-27.15c1.74-10.84,3.86-22.11,10.13-31.37C44.09,317.82,49.52,312.73,55.55,308.55L55.55,308.55z"/>
	<path fill="#B57741" d="M598.15,313.7c5.359,3.35,11.02,6.73,17.529,6.94c-3.02,12.57-3.66,25.54-5.051,38.35
		c-1.76,10.5-3.109,21.13-6.389,31.3c-0.9,2.66-1.611,5.37-2.27,8.1c-5.25-1.25-10.631-1.81-15.941-2.71
		c0.451-17.1,2.041-34.17,4.561-51.08C593.42,334.35,593.689,323.48,598.15,313.7L598.15,313.7z"/>
	<path fill="#B2B3B5" d="M53.34,329.34c3.63-5.38,9.44-8.62,15.1-11.45c0.29,10.71,1.13,21.4,1.14,32.11
		c0.11,7.69-1.15,15.67,1.48,23.08c0.59,1.81,1.21,4.1,3.29,4.689c6.88,2.29,14.22,2.15,21.35,2.9c4.41,0.5,8.86,0.99,13.3,0.561
		c2.97-0.4,5.74-3.131,5.53-6.25c-0.42-8.33-0.85-16.65-0.86-24.99c-0.05-10.24-1.21-20.46-0.78-30.71
		c7.2,2.83,12.29,8.99,16.94,14.88c5.46,13.859,11.79,28.55,9.13,43.79c-0.91,9.8-10.32,15.01-16.02,21.95
		c3.94,7.21,8.86,13.77,14.2,19.979c9.33,12.49,18.31,25.26,28.02,37.47c-8.03,4.511-15.69,10.21-21.26,17.631
		c-4.46-4.891-7.88-10.631-12.51-15.37c-4.1-4.261-7.39-9.23-11.67-13.33c-8.15-8.24-14.83-17.8-23.28-25.74
		c-2.88-2.61-2.95-7.53-6.67-9.26c-6.68-2.08-14.79-0.65-20.33-5.69c-4.63-4.02-9.74-7.62-13.58-12.45c-3.33-5.14-6.73-10.3-9.04-16
		c-2.12-4.76-2.53-10.029-2.99-15.149C44.54,350.61,47.24,339.1,53.34,329.34L53.34,329.34z"/>
	<path d="M410.75,326.74c1.75-1.32,4.09-1.28,6.18-1.5c3.43-0.5,6.301,2.63,6.859,5.78c1.4,6.44,5.801,11.54,9.262,16.95
		c2.658,4.2,8.186,8.681,13.033,6.947c5.66-2.023,9.326-7.087,14.256-10.487c3.551-0.59,4.211,4.09,4.9,6.61
		c0.289,5.07-5.24,6.94-8.311,9.86c-4.801,4.52-11.379,7.63-18.08,6.39c0.93,5.89,0.221,12.03-1.939,17.59
		c-3.24,4.84-7.439,10.32-13.82,10.561c-5.24-0.04-11.25-0.341-15.029-4.48c-4.602-5.12-8.441-11.46-8.441-18.55
		c-9.719-0.13-20.09,0.82-28.889-4.15c-2.631-2.87-5.061-7.49-2.621-11.16c3.84-3.92,8.891,0.734,13.141,1.41
		c5.876,0.935,13,2.41,17.721-2.52c4.689-5.601,7.64-12.472,9.85-19.33C410,333,408.1,329.43,410.75,326.74L410.75,326.74z"/>
	<path fill="#F31E3E" d="M418.25,349.41c2.68,4.109,5.459,8.17,7.92,12.43c1.18,1.82,1.15,4.04,1.279,6.13
		c0.16,3.7,0.34,7.681-1.539,11.03c-2.131,3.17-7.4,4.2-10.131,1.22c-2.469-2.67-4.49-5.939-5.32-9.5
		c-0.85-2.64,1.15-4.84,2.25-7.04C415.301,359.25,416.9,354.34,418.25,349.41L418.25,349.41z"/>
	<path fill="#FFFFFF" d="M563.209,413.14c4.881-2.43,10.41-1.76,15.67-1.6c8.941,0.75,17.391,4.01,26.061,6.1
		c5.201,12.86,6.41,27.62,1.5,40.761c-4.379,10.31-9.719,20.39-17.43,28.619c-6.209,6.41-14.039,10.851-21.66,15.36
		c-3.98,2.33-8.4,4.42-13.141,3.92c-3.189-1.89-6-4.3-8.85-6.64c-4.619-3.53-7.57-8.69-10.43-13.641
		c-2.801-4.72-2.98-10.3-4.23-15.5c-1.18-8.189,0.23-16.67,3.84-24.109c2.65-5.26,4.061-11.26,8.32-15.55
		C547.84,423.27,554.26,415.94,563.209,413.14L563.209,413.14z"/>
	<path fill="#F59C32" d="M604.939,417.64c3.891,1.83,7.711,3.841,11.391,6.08c4.41,2.7,6.33,7.73,9.129,11.84
		c1.99,2.921,3.771,6.07,4.391,9.61c2.609,13.97,2.18,28.91-3.699,42.03c-6.951,13.25-20.48,22.899-35.24,25.29
		c-5.92,0.399-11.92,1.319-17.82,0.34c-6.52-1.41-12.961-3.41-18.881-6.53c4.74,0.5,9.16-1.59,13.141-3.92
		c7.621-4.51,15.451-8.95,21.66-15.36c7.711-8.229,13.051-18.31,17.43-28.619C611.35,445.26,610.141,430.5,604.939,417.64
		L604.939,417.64z"/>
	<path fill="#FFFFFF" d="M196.16,466.2c5.27-0.62,10.57-0.9,15.84-1.47c9.79,0.02,18.18,5.659,26.84,9.47
		c5.14,3.03,8.38,8.28,12.73,12.24c5.87,4.939,7.56,12.84,10,19.76c1.06,11.229,4.47,23.149-0.36,34
		c-3.42,7.27-4.92,15.569-10.24,21.83c-3.59,2.93-7.77,5.05-12,6.89c-5.38,2.34-11.35,1.08-17,1.09
		c-10.5,0.13-19.41-6.439-26.95-13.02c-7.81-6.771-13.92-15.351-18.39-24.62c-3.08-6.46-5.85-13.23-6.57-20.4
		c-0.6-5.31-0.55-10.67-0.45-16c0.12-7.76,2.81-15.14,5.24-22.42C181.89,470.93,188.82,467.88,196.16,466.2L196.16,466.2z"/>
	<path fill="#F59C32" d="M152.97,491.99c5.89-7.58,12.68-14.95,21.88-18.44c-2.43,7.28-5.12,14.66-5.24,22.42
		c-0.1,5.33-0.15,10.69,0.45,16c0.72,7.17,3.49,13.94,6.57,20.4c4.47,9.27,10.58,17.85,18.39,24.62
		c7.54,6.58,16.45,13.149,26.95,13.02c5.65-0.01,11.62,1.25,17-1.09c4.23-1.84,8.41-3.96,12-6.89c-6.16,8.77-15.67,15-25.88,18.04
		c-7.3,3.199-14.93,6.489-23.08,6.06c-8.15-0.49-16.5,1.9-24.45-0.68c-8.56-2.271-17.59-5.55-23.48-12.49
		c-5.69-8.25-9.7-17.63-12.61-27.19c-1.75-12.18-0.33-24.88,3.8-36.47C148.05,503.62,149.2,497.16,152.97,491.99L152.97,491.99z"/>
	<path fill="#B2B3B5" d="M260.06,578.87c6.67,4.2,12.23,9.82,18.32,14.77c4.58,4.08,9,8.7,11.58,14.341
		c1.23,5.18,1.75,11.52-2.24,15.71c-4.13,3.739-10.52,6.119-15.8,3.38c-5.53-2.82-10.79-6.42-14.7-11.29
		c-5.12-6.73-10.8-13.011-15.54-20.021c3.85-2.42,8.01-4.55,11.07-8C255.31,584.9,257.68,581.88,260.06,578.87L260.06,578.87z"/>
	<path d="M268.18,602.78c4.34-0.58,7.82,2.569,10.99,5.04c2,1.449,2.2,4.35,1.17,6.43c-1.81,2.59-5.57,1.82-7.7,0.11
		C269.32,611.56,266.46,607.26,268.18,602.78L268.18,602.78z"/>
</g>
</svg>
